<svg width="1024" height="1024" viewBox="0 0 1024 1024" fill="none" xmlns="http://www.w3.org/2000/svg">
<path d="M542.54 58.0183C637.401 70.9644 714.706 139.01 734.885 230.739C754.077 317.984 724.3 388.723 655.247 443.946C646.891 450.628 637.99 456.644 628.4 461.362C621.945 464.538 621.908 467.57 625.508 473.307C659.097 526.834 692.416 580.53 725.819 634.174C731.31 642.992 736.879 651.762 742.31 660.617C743.765 662.99 745.905 665.258 744.589 669.448C733 669.448 719.819 670.553 707.319 670.172C673.52 669.139 639.728 669.661 605.932 669.837C599.006 669.873 592.075 669.642 585.155 669.84C579.751 669.995 577.79 666.187 575.504 662.463C561.765 640.087 547.793 617.85 534.336 595.306C530.226 588.421 525.067 585.218 517.084 584.468C500.714 582.93 486.696 575.817 475.081 564.169C473.082 562.164 470.655 559.892 471.939 556.666C473.309 553.227 476.775 553.918 479.513 553.987C508.688 554.715 537.841 552.011 567.015 553.482C569.686 553.617 572.28 553.476 574.566 552.12C577.157 550.583 579.239 548.257 578.844 545.127C578.384 541.489 575.163 541.016 572.2 540.981C565.557 540.904 558.911 541.039 552.266 541.04C524.528 541.043 496.791 541.033 469.053 541.011C466.455 541.009 463.811 541.177 461.271 540.76C455.953 539.888 452.989 536.346 453.153 531.146C453.324 525.695 456.852 522.93 462.327 522.917C479.374 522.875 496.421 522.862 513.468 522.856C531.382 522.851 549.296 522.862 567.21 522.875C570.69 522.878 574.173 523.068 576.773 520.01C580.304 515.856 579.088 511.383 573.797 510.259C571.302 509.729 568.622 510.017 566.025 510.017C533.086 510.014 500.148 510.028 467.209 510.034C465.765 510.034 464.32 509.977 462.876 509.97C456.596 509.941 452.898 506.853 452.991 500.544C453.08 494.476 457 492.094 462.784 492.09C476.363 492.079 489.943 491.94 503.522 491.927C524.904 491.907 546.285 491.948 567.666 491.964C572.586 491.967 577.848 491.403 577.387 485.066C576.925 478.714 571.604 479.366 566.759 479.599C532.114 481.269 497.44 480.013 462.782 480.465C456.97 480.541 453.283 477.69 453.032 471.79C452.786 465.984 456.192 462.739 461.829 461.925C464.678 461.514 467.577 461.185 470.448 461.226C501.622 461.67 532.816 459.59 563.98 462.15C573.418 462.925 579.184 458.528 581.142 448.813C583.297 438.12 584.261 427.191 586.291 416.468C590.325 395.165 599.614 376.103 611.653 358.183C627.82 334.118 641.336 308.925 647.734 280.16C664.631 204.186 611.093 125.333 534.102 113.602C457.727 101.965 388.7 149.42 373.22 224.707C364.534 266.955 376.447 305.094 398.339 340.92C398.79 341.659 399.215 342.426 399.758 343.094C427.997 377.828 436.567 417.582 435.147 461.896C433.058 527.035 434.573 592.289 434.544 657.494C434.538 670.813 434.333 671.009 420.982 671C378.22 670.97 335.457 670.957 292.695 670.883C281.963 670.865 281.176 670.1 281.176 659.722C281.186 531.909 280.631 404.091 281.441 276.282C282.12 169.06 368.015 73.3773 474.531 58.6143C497.017 55.4977 519.331 55.0061 542.54 58.0183Z" fill="#FFFFFF"/>
<g filter="url(#filter0_d_11_16)">
<path d="M592.355 288.522C591.555 289.432 591.23 289.94 590.779 290.282C582.603 296.499 576.954 303.796 572.622 313.802C563.202 335.566 531.677 338.101 514.857 319.826C513.13 317.949 511.628 315.867 510.121 314.003C506.885 314.108 506.39 316.828 505.025 318.484C495.915 329.537 484.261 333.857 470.334 330.913C456.393 327.966 447.218 319.386 443.984 305.397C442.941 300.882 440.19 298.724 436.839 296.314C421.238 285.088 416.5 270.328 422.905 252.767C423.943 249.922 423.12 247.713 422.253 245.325C418.35 234.578 419.569 224.328 425.515 214.712C427.584 211.365 428.146 207.923 428.561 204.132C430.261 188.609 437.486 176.95 452.783 171.38C455.565 170.367 457.706 168.798 459.649 166.454C471.69 151.934 488.626 148.858 504.328 158.737C508.416 161.308 510.974 161.257 514.986 158.749C530.56 149.011 547.981 152.076 559.83 166.392C562.164 169.212 564.816 170.778 568.183 172.035C582.665 177.44 590.007 188.078 590.4 203.725C590.488 207.197 590.626 210.35 593 213.418C600.243 222.779 601.493 233.267 597.773 244.434C596.884 247.105 595.665 249.598 597.289 252.672C604.035 265.44 601.107 277.12 592.355 288.522ZM559.072 232.099C558.747 245.878 553.007 253.312 538.463 256.789C527.65 259.374 521.326 265.826 518.675 276.147C516.492 284.647 516.765 293.239 519.095 301.727C522.154 312.872 530.063 319.301 541.456 319.93C551.653 320.493 564.961 311.832 563.015 304.512C560.203 293.935 566.35 291.242 573.43 288.14C582.114 284.335 586.693 277.236 588.746 268.445C590.585 260.566 586.565 257.01 578.862 259.238C576.098 260.037 573.404 261.139 570.598 261.717C567.793 262.295 565.346 261.314 564.381 258.394C563.53 255.817 564.923 253.75 567.035 252.608C570.055 250.974 573.316 249.783 576.483 248.423C589.19 242.967 591.889 229.859 582.382 219.754C571.831 208.541 556.098 207.899 544.539 218.143C542.614 219.848 540.567 221.481 538.365 222.792C536.049 224.171 533.881 223.245 532.191 221.365C530.467 219.447 530.266 217.399 531.618 215.055C537.136 205.485 552.42 198.572 563.706 200.11C568.614 200.778 573.329 203.424 578.833 202.38C577.847 191.352 572.142 185.154 562.128 182.425C557.772 181.238 553.623 180.262 551.126 175.246C546.569 166.093 534.492 162.479 525.051 166.532C516.402 170.245 513.975 177.196 517.418 189.242C520.834 187.709 524.092 185.893 527.575 184.778C531.387 183.558 535.374 182.538 539.345 182.251C543.721 181.935 548.508 182.299 548.645 188.476C548.793 195.105 543.802 193.397 539.975 193.44C529.345 193.56 516.961 200.705 516.419 208.977C515.434 224.023 516.14 239.179 516.14 255.546C520.268 252.958 523.017 250.961 526.007 249.435C529.068 247.873 532.273 246.429 535.578 245.541C542.631 243.647 547.35 239.917 548.491 232.26C548.843 229.896 549.17 226.725 552.507 226.29C555.759 225.867 558.071 227.33 559.072 232.099ZM467.169 176.805C465.302 181.391 460.576 180.967 457.007 182.436C446.475 186.771 441.422 193.534 442.404 203.481C457.652 197.931 471.864 198.829 483.867 210.88C486.766 213.791 492.173 216.566 487.87 221.154C484.271 224.994 479.902 222.128 476.597 218.881C475.98 218.275 475.395 217.633 474.743 217.068C463.537 207.376 444.27 209.721 435.645 221.818C428.381 232.006 432.107 243.841 443.89 248.204C447.105 249.394 450.398 250.548 453.334 252.268C455.637 253.617 457.082 256.002 455.665 258.906C454.295 261.713 451.986 262.263 449.128 261.277C446.681 260.433 444.226 259.582 441.721 258.939C433.521 256.835 429.547 260.582 431.526 268.795C433.749 278.023 439.215 284.747 447.97 288.701C453.816 291.341 458.81 294.208 455.857 302.325C454.617 305.732 457.331 308.966 459.502 311.629C469.725 324.17 490.938 321.757 498.272 307.3C509.436 285.293 500.333 262.819 477.048 255.692C466.894 252.585 462.205 245.32 460.197 235.76C459.38 231.872 460.37 227.759 464.629 226.548C469.4 225.19 470.071 229.294 470.954 232.726C472.283 237.885 474.163 242.731 480.11 244.206C487.951 246.152 495.275 249.191 502.952 255.828C502.952 240.717 502.609 227.328 503.07 213.966C503.39 204.702 498.459 199.526 491.058 195.831C486.609 193.61 481.795 192.749 476.763 193.553C474.28 193.95 472.006 193.496 471.39 190.603C470.746 187.582 471.221 184.834 474.325 183.232C477.902 181.386 481.653 181.669 485.277 182.801C490.903 184.558 496.433 186.621 502.075 188.579C504.394 174.393 501.108 167.121 491.432 165.714C481.738 164.304 472.913 165.886 467.169 176.805Z" fill="#FFFFFF"/>
</g>
<path d="M514.998 366.421C514.998 389.463 515.007 411.651 514.986 433.839C514.984 436.11 514.908 438.39 514.671 440.65C514.475 442.529 513.265 443.84 510.988 443.984C508.263 444.157 506.743 442.889 506.382 440.573C506.206 439.449 506.109 438.307 506.108 437.174C506.073 403.039 506.03 368.904 506.08 334.769C506.084 332.111 505.13 328.199 509.707 328.008C514.548 327.805 514.836 331.698 514.879 334.846C515.021 345.085 514.973 355.326 514.998 366.421Z" fill="#FFFFFF"/>
<g filter="url(#filter1_d_11_16)">
<path d="M546.674 266.84C551.7 260.103 555.008 263.292 557.149 268.294C560.524 276.181 553.28 295.114 545.65 299.655C542.8 301.352 540.13 301.724 537.7 299.113C535.229 296.459 535.544 293.413 538.048 291.339C545.722 284.985 546.682 276.497 546.674 266.84Z" fill="#FFFFFF"/>
</g>
<g filter="url(#filter2_d_11_16)">
<path d="M464.038 274.781C464.025 271.736 463.853 269.342 464.364 267.122C464.923 264.696 466.672 263.077 469.224 263.002C471.931 262.923 473.737 264.852 473.802 267.232C474.057 276.577 475.944 285.09 482.096 292.364C483.975 294.586 482.712 297.437 480.256 299.108C477.625 300.898 475.315 299.768 473.502 297.711C467.986 291.451 465.425 283.768 464.038 274.781Z" fill="#FFFFFF"/>
</g>
<path d="M188.67 880L156.55 821.7H147.53V880H109.91V725.56H173.05C185.223 725.56 195.563 727.687 204.07 731.94C212.723 736.193 219.176 742.06 223.43 749.54C227.683 756.873 229.81 765.087 229.81 774.18C229.81 784.447 226.876 793.613 221.01 801.68C215.29 809.747 206.783 815.467 195.49 818.84L231.13 880H188.67ZM147.53 795.08H170.85C177.743 795.08 182.876 793.393 186.25 790.02C189.77 786.647 191.53 781.88 191.53 775.72C191.53 769.853 189.77 765.233 186.25 761.86C182.876 758.487 177.743 756.8 170.85 756.8H147.53V795.08ZM291.045 755.7V786.94H341.425V815.98H291.045V849.86H348.025V880H253.425V725.56H348.025V755.7H291.045ZM412.489 849.2H478.929V880H369.809V851.4L435.809 756.36H369.809V725.56H478.929V754.16L412.489 849.2ZM540.463 725.56V817.96C540.463 827.2 542.737 834.313 547.283 839.3C551.83 844.287 558.503 846.78 567.303 846.78C576.103 846.78 582.85 844.287 587.543 839.3C592.237 834.313 594.583 827.2 594.583 817.96V725.56H632.203V817.74C632.203 831.527 629.27 843.187 623.403 852.72C617.537 862.253 609.617 869.44 599.643 874.28C589.817 879.12 578.817 881.54 566.643 881.54C554.47 881.54 543.543 879.193 533.863 874.5C524.33 869.66 516.777 862.473 511.203 852.94C505.63 843.26 502.843 831.527 502.843 817.74V725.56H540.463ZM696.24 850.96H745.52V880H658.62V725.56H696.24V850.96ZM801.084 725.56V880H763.464V725.56H801.084ZM865.967 755.7V786.94H916.347V815.98H865.967V849.86H922.947V880H828.347V725.56H922.947V755.7H865.967Z" fill="#FFFFFF"/>
<path d="M248.234 900.6L216.914 984H201.074L169.634 900.6H184.274L208.994 969.96L233.834 900.6H248.234ZM287.754 911.64V936.12H316.554V947.28H287.754V972.84H320.154V984H274.074V900.48H320.154V911.64H287.754ZM419.924 984H406.244L365.084 921.72V984H351.404V900.48H365.084L406.244 962.64V900.48H419.924V984ZM506.168 900.6V911.76H483.968V984H470.288V911.76H447.968V900.6H506.168ZM547.983 900.6V953.76C547.983 960.08 549.623 964.84 552.903 968.04C556.263 971.24 560.903 972.84 566.823 972.84C572.823 972.84 577.463 971.24 580.743 968.04C584.103 964.84 585.783 960.08 585.783 953.76V900.6H599.463V953.52C599.463 960.32 597.983 966.08 595.023 970.8C592.063 975.52 588.103 979.04 583.143 981.36C578.183 983.68 572.703 984.84 566.703 984.84C560.703 984.84 555.223 983.68 550.263 981.36C545.383 979.04 541.503 975.52 538.623 970.8C535.743 966.08 534.303 960.32 534.303 953.52V900.6H547.983ZM674.994 984L655.794 950.64H645.354V984H631.674V900.6H660.474C666.874 900.6 672.274 901.72 676.674 903.96C681.154 906.2 684.474 909.2 686.634 912.96C688.874 916.72 689.994 920.92 689.994 925.56C689.994 931 688.394 935.96 685.194 940.44C682.074 944.84 677.234 947.84 670.674 949.44L691.314 984H674.994ZM645.354 939.72H660.474C665.594 939.72 669.434 938.44 671.994 935.88C674.634 933.32 675.954 929.88 675.954 925.56C675.954 921.24 674.674 917.88 672.114 915.48C669.554 913 665.674 911.76 660.474 911.76H645.354V939.72ZM735.575 911.64V936.12H764.375V947.28H735.575V972.84H767.975V984H721.895V900.48H767.975V911.64H735.575ZM826.704 984.84C821.104 984.84 816.064 983.88 811.584 981.96C807.104 979.96 803.584 977.16 801.024 973.56C798.464 969.96 797.184 965.76 797.184 960.96H811.824C812.144 964.56 813.544 967.52 816.024 969.84C818.584 972.16 822.144 973.32 826.704 973.32C831.424 973.32 835.104 972.2 837.744 969.96C840.384 967.64 841.704 964.68 841.704 961.08C841.704 958.28 840.864 956 839.184 954.24C837.584 952.48 835.544 951.12 833.064 950.16C830.664 949.2 827.304 948.16 822.984 947.04C817.544 945.6 813.104 944.16 809.664 942.72C806.304 941.2 803.424 938.88 801.024 935.76C798.624 932.64 797.424 928.48 797.424 923.28C797.424 918.48 798.624 914.28 801.024 910.68C803.424 907.08 806.784 904.32 811.104 902.4C815.424 900.48 820.424 899.52 826.104 899.52C834.184 899.52 840.784 901.56 845.904 905.64C851.104 909.64 853.984 915.16 854.544 922.2H839.424C839.184 919.16 837.744 916.56 835.104 914.4C832.464 912.24 828.984 911.16 824.664 911.16C820.744 911.16 817.544 912.16 815.064 914.16C812.584 916.16 811.344 919.04 811.344 922.8C811.344 925.36 812.104 927.48 813.624 929.16C815.224 930.76 817.224 932.04 819.624 933C822.024 933.96 825.304 935 829.464 936.12C834.984 937.64 839.464 939.16 842.904 940.68C846.424 942.2 849.384 944.56 851.784 947.76C854.264 950.88 855.504 955.08 855.504 960.36C855.504 964.6 854.344 968.6 852.024 972.36C849.784 976.12 846.464 979.16 842.064 981.48C837.744 983.72 832.624 984.84 826.704 984.84Z" fill="#FFFFFF"/>
<defs>
<filter id="filter0_d_11_16" x="416" y="153" width="189" height="187" filterUnits="userSpaceOnUse" color-interpolation-filters="sRGB">
<feFlood flood-opacity="0" result="BackgroundImageFix"/>
<feColorMatrix in="SourceAlpha" type="matrix" values="0 0 0 0 0 0 0 0 0 0 0 0 0 0 0 0 0 0 127 0" result="hardAlpha"/>
<feOffset dy="4"/>
<feGaussianBlur stdDeviation="2"/>
<feComposite in2="hardAlpha" operator="out"/>
<feColorMatrix type="matrix" values="0 0 0 0 0 0 0 0 0 0 0 0 0 0 0 0 0 0 0.25 0"/>
<feBlend mode="normal" in2="BackgroundImageFix" result="effect1_dropShadow_11_16"/>
<feBlend mode="normal" in="SourceGraphic" in2="effect1_dropShadow_11_16" result="shape"/>
</filter>
<filter id="filter1_d_11_16" x="532" y="263" width="30" height="46" filterUnits="userSpaceOnUse" color-interpolation-filters="sRGB">
<feFlood flood-opacity="0" result="BackgroundImageFix"/>
<feColorMatrix in="SourceAlpha" type="matrix" values="0 0 0 0 0 0 0 0 0 0 0 0 0 0 0 0 0 0 127 0" result="hardAlpha"/>
<feOffset dy="4"/>
<feGaussianBlur stdDeviation="2"/>
<feComposite in2="hardAlpha" operator="out"/>
<feColorMatrix type="matrix" values="0 0 0 0 0 0 0 0 0 0 0 0 0 0 0 0 0 0 0.25 0"/>
<feBlend mode="normal" in2="BackgroundImageFix" result="effect1_dropShadow_11_16"/>
<feBlend mode="normal" in="SourceGraphic" in2="effect1_dropShadow_11_16" result="shape"/>
</filter>
<filter id="filter2_d_11_16" x="460" y="263" width="27" height="45" filterUnits="userSpaceOnUse" color-interpolation-filters="sRGB">
<feFlood flood-opacity="0" result="BackgroundImageFix"/>
<feColorMatrix in="SourceAlpha" type="matrix" values="0 0 0 0 0 0 0 0 0 0 0 0 0 0 0 0 0 0 127 0" result="hardAlpha"/>
<feOffset dy="4"/>
<feGaussianBlur stdDeviation="2"/>
<feComposite in2="hardAlpha" operator="out"/>
<feColorMatrix type="matrix" values="0 0 0 0 0 0 0 0 0 0 0 0 0 0 0 0 0 0 0.25 0"/>
<feBlend mode="normal" in2="BackgroundImageFix" result="effect1_dropShadow_11_16"/>
<feBlend mode="normal" in="SourceGraphic" in2="effect1_dropShadow_11_16" result="shape"/>
</filter>
</defs>
</svg>
