<svg width="1024" height="1024" viewBox="0 0 1024 1024" fill="none" xmlns="http://www.w3.org/2000/svg">
<path d="M541.54 206.018C636.401 218.964 713.706 287.01 733.885 378.739C753.077 465.984 723.3 536.723 654.247 591.946C645.891 598.628 636.99 604.644 627.4 609.362C620.945 612.538 620.908 615.57 624.508 621.307C658.097 674.834 691.416 728.53 724.819 782.174C730.31 790.992 735.879 799.762 741.31 808.617C742.765 810.99 744.905 813.258 743.589 817.448C732 817.448 718.819 818.553 706.319 818.172C672.52 817.139 638.728 817.661 604.932 817.837C598.006 817.873 591.075 817.642 584.155 817.84C578.751 817.995 576.79 814.187 574.504 810.463C560.765 788.087 546.793 765.85 533.336 743.306C529.226 736.421 524.067 733.218 516.084 732.468C499.714 730.93 485.696 723.817 474.081 712.169C472.082 710.164 469.655 707.892 470.939 704.666C472.309 701.227 475.775 701.918 478.513 701.987C507.688 702.715 536.841 700.011 566.015 701.482C568.686 701.617 571.28 701.476 573.566 700.12C576.157 698.583 578.239 696.257 577.844 693.127C577.384 689.489 574.163 689.016 571.2 688.981C564.557 688.904 557.911 689.039 551.266 689.04C523.528 689.043 495.791 689.033 468.053 689.011C465.455 689.009 462.811 689.177 460.271 688.76C454.953 687.888 451.989 684.346 452.153 679.146C452.324 673.695 455.852 670.93 461.327 670.917C478.374 670.875 495.421 670.862 512.468 670.856C530.382 670.851 548.296 670.862 566.21 670.875C569.69 670.878 573.173 671.068 575.773 668.01C579.304 663.856 578.088 659.383 572.797 658.259C570.302 657.729 567.622 658.017 565.025 658.017C532.086 658.014 499.148 658.028 466.209 658.034C464.765 658.034 463.32 657.977 461.876 657.97C455.596 657.941 451.898 654.853 451.991 648.544C452.08 642.476 456 640.094 461.784 640.09C475.363 640.079 488.943 639.94 502.522 639.927C523.904 639.907 545.285 639.948 566.666 639.964C571.586 639.967 576.848 639.403 576.387 633.066C575.925 626.714 570.604 627.366 565.759 627.599C531.114 629.269 496.44 628.013 461.782 628.465C455.97 628.541 452.283 625.69 452.032 619.79C451.786 613.984 455.192 610.739 460.829 609.925C463.678 609.514 466.577 609.185 469.448 609.226C500.622 609.67 531.816 607.59 562.98 610.15C572.418 610.925 578.184 606.528 580.142 596.813C582.297 586.12 583.261 575.191 585.291 564.468C589.325 543.165 598.614 524.103 610.653 506.183C626.82 482.118 640.336 456.925 646.734 428.16C663.631 352.186 610.093 273.333 533.102 261.602C456.727 249.965 387.7 297.42 372.22 372.707C363.534 414.955 375.447 453.094 397.339 488.92C397.79 489.659 398.215 490.426 398.758 491.094C426.997 525.828 435.567 565.582 434.147 609.896C432.058 675.035 433.573 740.289 433.544 805.494C433.538 818.813 433.333 819.009 419.982 819C377.22 818.97 334.457 818.957 291.695 818.883C280.963 818.865 280.176 818.1 280.176 807.722C280.186 679.909 279.631 552.091 280.441 424.282C281.12 317.06 367.015 221.377 473.531 206.614C496.017 203.498 518.331 203.006 541.54 206.018Z" fill="#FFFFFF"/>
<g filter="url(#filter0_d_10_2)">
<path d="M591.355 436.522C590.555 437.432 590.23 437.94 589.779 438.282C581.603 444.499 575.954 451.796 571.622 461.802C562.202 483.566 530.677 486.101 513.857 467.826C512.13 465.949 510.628 463.867 509.121 462.003C505.885 462.108 505.39 464.828 504.025 466.484C494.915 477.537 483.261 481.857 469.334 478.913C455.393 475.966 446.218 467.386 442.984 453.397C441.941 448.882 439.19 446.724 435.839 444.314C420.238 433.088 415.5 418.328 421.905 400.767C422.943 397.922 422.12 395.713 421.253 393.325C417.35 382.578 418.569 372.328 424.515 362.712C426.584 359.365 427.146 355.923 427.561 352.132C429.261 336.609 436.486 324.95 451.783 319.38C454.565 318.367 456.706 316.798 458.649 314.454C470.69 299.934 487.626 296.858 503.328 306.737C507.416 309.308 509.974 309.257 513.986 306.749C529.56 297.011 546.981 300.076 558.83 314.392C561.164 317.212 563.816 318.778 567.183 320.035C581.665 325.44 589.007 336.078 589.4 351.725C589.488 355.197 589.626 358.35 592 361.418C599.243 370.779 600.493 381.267 596.773 392.434C595.884 395.105 594.665 397.598 596.289 400.672C603.035 413.44 600.107 425.12 591.355 436.522ZM558.072 380.099C557.747 393.878 552.007 401.312 537.463 404.789C526.65 407.374 520.326 413.826 517.675 424.147C515.492 432.647 515.765 441.239 518.095 449.727C521.154 460.872 529.063 467.301 540.456 467.93C550.653 468.493 563.961 459.832 562.015 452.512C559.203 441.935 565.35 439.242 572.43 436.14C581.114 432.335 585.693 425.236 587.746 416.445C589.585 408.566 585.565 405.01 577.862 407.238C575.098 408.037 572.404 409.139 569.598 409.717C566.793 410.295 564.346 409.314 563.381 406.394C562.53 403.817 563.923 401.75 566.035 400.608C569.055 398.974 572.316 397.783 575.483 396.423C588.19 390.967 590.889 377.859 581.382 367.754C570.831 356.541 555.098 355.899 543.539 366.143C541.614 367.848 539.567 369.481 537.365 370.792C535.049 372.171 532.881 371.245 531.191 369.365C529.467 367.447 529.266 365.399 530.618 363.055C536.136 353.485 551.42 346.572 562.706 348.11C567.614 348.778 572.329 351.424 577.833 350.38C576.847 339.352 571.142 333.154 561.128 330.425C556.772 329.238 552.623 328.262 550.126 323.246C545.569 314.093 533.492 310.479 524.051 314.532C515.402 318.245 512.975 325.196 516.418 337.242C519.834 335.709 523.092 333.893 526.575 332.778C530.387 331.558 534.374 330.538 538.345 330.251C542.721 329.935 547.508 330.299 547.645 336.476C547.793 343.105 542.802 341.397 538.975 341.44C528.345 341.56 515.961 348.705 515.419 356.977C514.434 372.023 515.14 387.179 515.14 403.546C519.268 400.958 522.017 398.961 525.007 397.435C528.068 395.873 531.273 394.429 534.578 393.541C541.631 391.647 546.35 387.917 547.491 380.26C547.843 377.896 548.17 374.725 551.507 374.29C554.759 373.867 557.071 375.33 558.072 380.099ZM466.169 324.805C464.302 329.391 459.576 328.967 456.007 330.436C445.475 334.771 440.422 341.534 441.404 351.481C456.652 345.931 470.864 346.829 482.867 358.88C485.766 361.791 491.173 364.566 486.87 369.154C483.271 372.994 478.902 370.128 475.597 366.881C474.98 366.275 474.395 365.633 473.743 365.068C462.537 355.376 443.27 357.721 434.645 369.818C427.381 380.006 431.107 391.841 442.89 396.204C446.105 397.394 449.398 398.548 452.334 400.268C454.637 401.617 456.082 404.002 454.665 406.906C453.295 409.713 450.986 410.263 448.128 409.277C445.681 408.433 443.226 407.582 440.721 406.939C432.521 404.835 428.547 408.582 430.526 416.795C432.749 426.023 438.215 432.747 446.97 436.701C452.816 439.341 457.81 442.208 454.857 450.325C453.617 453.732 456.331 456.966 458.502 459.629C468.725 472.17 489.938 469.757 497.272 455.3C508.436 433.293 499.333 410.819 476.048 403.692C465.894 400.585 461.205 393.32 459.197 383.76C458.38 379.872 459.37 375.759 463.629 374.548C468.4 373.19 469.071 377.294 469.954 380.726C471.283 385.885 473.163 390.731 479.11 392.206C486.951 394.152 494.275 397.191 501.952 403.828C501.952 388.717 501.609 375.328 502.07 361.966C502.39 352.702 497.459 347.526 490.058 343.831C485.609 341.61 480.795 340.749 475.763 341.553C473.28 341.95 471.006 341.496 470.39 338.603C469.746 335.582 470.221 332.834 473.325 331.232C476.902 329.386 480.653 329.669 484.277 330.801C489.903 332.558 495.433 334.621 501.075 336.579C503.394 322.393 500.108 315.121 490.432 313.714C480.738 312.304 471.913 313.886 466.169 324.805Z" fill="#FFFFFF"/>
</g>
<path d="M513.998 514.421C513.998 537.463 514.007 559.651 513.986 581.839C513.984 584.11 513.908 586.39 513.671 588.65C513.475 590.529 512.265 591.84 509.988 591.984C507.263 592.157 505.743 590.889 505.382 588.573C505.206 587.449 505.109 586.307 505.108 585.174C505.073 551.039 505.03 516.904 505.08 482.769C505.084 480.111 504.13 476.199 508.707 476.008C513.548 475.805 513.836 479.698 513.879 482.846C514.021 493.085 513.973 503.326 513.998 514.421Z" fill="#FFFFFF"/>
<g filter="url(#filter1_d_10_2)">
<path d="M545.674 414.84C550.7 408.103 554.008 411.292 556.149 416.294C559.524 424.181 552.28 443.114 544.65 447.655C541.8 449.352 539.13 449.724 536.7 447.113C534.229 444.459 534.544 441.413 537.048 439.339C544.722 432.985 545.682 424.497 545.674 414.84Z" fill="#FFFFFF"/>
</g>
<g filter="url(#filter2_d_10_2)">
<path d="M463.038 422.781C463.025 419.736 462.853 417.342 463.364 415.122C463.923 412.696 465.672 411.077 468.224 411.002C470.931 410.923 472.737 412.852 472.802 415.232C473.057 424.577 474.944 433.09 481.096 440.364C482.975 442.586 481.712 445.437 479.256 447.108C476.625 448.898 474.315 447.768 472.502 445.711C466.986 439.451 464.425 431.768 463.038 422.781Z" fill="#FFFFFF"/>
</g>
<defs>
<filter id="filter0_d_10_2" x="415" y="301" width="189" height="187" filterUnits="userSpaceOnUse" color-interpolation-filters="sRGB">
<feFlood flood-opacity="0" result="BackgroundImageFix"/>
<feColorMatrix in="SourceAlpha" type="matrix" values="0 0 0 0 0 0 0 0 0 0 0 0 0 0 0 0 0 0 127 0" result="hardAlpha"/>
<feOffset dy="4"/>
<feGaussianBlur stdDeviation="2"/>
<feComposite in2="hardAlpha" operator="out"/>
<feColorMatrix type="matrix" values="0 0 0 0 0 0 0 0 0 0 0 0 0 0 0 0 0 0 0.25 0"/>
<feBlend mode="normal" in2="BackgroundImageFix" result="effect1_dropShadow_10_2"/>
<feBlend mode="normal" in="SourceGraphic" in2="effect1_dropShadow_10_2" result="shape"/>
</filter>
<filter id="filter1_d_10_2" x="531" y="411" width="30" height="46" filterUnits="userSpaceOnUse" color-interpolation-filters="sRGB">
<feFlood flood-opacity="0" result="BackgroundImageFix"/>
<feColorMatrix in="SourceAlpha" type="matrix" values="0 0 0 0 0 0 0 0 0 0 0 0 0 0 0 0 0 0 127 0" result="hardAlpha"/>
<feOffset dy="4"/>
<feGaussianBlur stdDeviation="2"/>
<feComposite in2="hardAlpha" operator="out"/>
<feColorMatrix type="matrix" values="0 0 0 0 0 0 0 0 0 0 0 0 0 0 0 0 0 0 0.25 0"/>
<feBlend mode="normal" in2="BackgroundImageFix" result="effect1_dropShadow_10_2"/>
<feBlend mode="normal" in="SourceGraphic" in2="effect1_dropShadow_10_2" result="shape"/>
</filter>
<filter id="filter2_d_10_2" x="459" y="411" width="27" height="45" filterUnits="userSpaceOnUse" color-interpolation-filters="sRGB">
<feFlood flood-opacity="0" result="BackgroundImageFix"/>
<feColorMatrix in="SourceAlpha" type="matrix" values="0 0 0 0 0 0 0 0 0 0 0 0 0 0 0 0 0 0 127 0" result="hardAlpha"/>
<feOffset dy="4"/>
<feGaussianBlur stdDeviation="2"/>
<feComposite in2="hardAlpha" operator="out"/>
<feColorMatrix type="matrix" values="0 0 0 0 0 0 0 0 0 0 0 0 0 0 0 0 0 0 0.25 0"/>
<feBlend mode="normal" in2="BackgroundImageFix" result="effect1_dropShadow_10_2"/>
<feBlend mode="normal" in="SourceGraphic" in2="effect1_dropShadow_10_2" result="shape"/>
</filter>
</defs>
</svg>
