<svg width="1276" height="410" viewBox="0 0 1276 410" fill="none" xmlns="http://www.w3.org/2000/svg">
<g clip-path="url(#clip0_11_24)">
<path d="M164.377 53.3018C175.203 51.7989 185.961 51.5207 197.126 52.8701L198.208 53.0059L198.214 53.0068C245.421 59.4595 283.93 93.3846 293.984 139.161C298.757 160.892 297.449 180.617 290.621 198.365C283.795 216.108 271.477 231.811 254.329 245.546C250.165 248.881 245.71 251.898 240.896 254.271C239.349 255.033 238.945 255.612 238.86 256.043C238.762 256.545 238.98 257.321 239.874 258.748C256.452 285.209 272.898 311.754 289.383 338.269C292.086 342.616 294.843 346.965 297.525 351.345C298.147 352.359 299.567 353.932 298.751 356.532L298.531 357.233H297.797C294.961 357.233 291.93 357.368 288.805 357.481C285.691 357.594 282.493 357.685 279.372 357.59C262.714 357.08 246.064 357.338 229.37 357.425C225.89 357.443 222.549 357.328 219.14 357.426C217.519 357.472 216.354 356.906 215.458 356.042C214.626 355.239 214.023 354.163 213.495 353.303C206.722 342.254 199.816 331.246 193.171 320.096C192.218 318.496 191.176 317.38 189.958 316.615C188.739 315.85 187.277 315.396 185.422 315.222C177.089 314.437 169.959 310.806 164.077 304.897C163.619 304.437 162.958 303.805 162.533 303.059C162.072 302.247 161.855 301.249 162.306 300.114C162.535 299.536 162.876 299.082 163.315 298.754C163.748 298.431 164.225 298.268 164.673 298.188C165.114 298.108 165.557 298.102 165.942 298.113L166.998 298.159C174.165 298.338 181.33 298.096 188.538 297.897C195.735 297.699 202.967 297.545 210.209 297.911C211.484 297.975 212.511 297.889 213.374 297.377C214.528 296.691 215.124 295.856 215.004 294.905C214.935 294.359 214.706 294.138 214.396 293.992C213.997 293.805 213.423 293.739 212.706 293.73C209.429 293.692 206.191 293.759 202.879 293.76C189.189 293.761 175.499 293.756 161.81 293.745C160.617 293.744 159.167 293.832 157.808 293.608C156.31 293.362 155.053 292.722 154.187 291.691C153.318 290.658 152.917 289.324 152.964 287.838C153.013 286.271 153.555 284.969 154.591 284.071C155.609 283.189 156.98 282.805 158.488 282.801C166.903 282.78 175.317 282.774 183.73 282.771C192.572 282.769 201.415 282.774 210.256 282.78C212.099 282.782 213.282 282.812 214.212 281.717C214.945 280.853 215.046 280.127 214.913 279.675C214.788 279.248 214.359 278.748 213.298 278.522C212.784 278.413 212.227 278.383 211.61 278.386C211.303 278.387 210.992 278.397 210.665 278.406C210.343 278.415 210.007 278.425 209.67 278.425C193.414 278.424 177.158 278.43 160.901 278.433C160.533 278.433 160.166 278.425 159.811 278.418C159.452 278.41 159.104 278.403 158.758 278.401C157.06 278.394 155.549 277.971 154.465 276.971C153.363 275.954 152.858 274.487 152.884 272.728C152.909 271 153.493 269.641 154.626 268.744C155.719 267.879 157.175 267.565 158.716 267.563C162.064 267.561 165.412 267.542 168.764 267.523C172.114 267.505 175.468 267.486 178.821 267.482C189.375 267.473 199.93 267.493 210.48 267.501C211.711 267.502 212.741 267.419 213.428 267.076C213.739 266.921 213.948 266.726 214.083 266.475C214.222 266.215 214.327 265.81 214.28 265.164C214.233 264.517 214.07 264.152 213.905 263.938C213.745 263.731 213.517 263.58 213.176 263.477C212.819 263.369 212.37 263.324 211.823 263.321C211.272 263.319 210.706 263.357 210.08 263.388C192.968 264.214 175.759 263.594 158.729 263.816C157.139 263.837 155.7 263.459 154.629 262.539C153.542 261.606 152.975 260.236 152.904 258.571C152.834 256.924 153.284 255.527 154.253 254.484C155.207 253.458 156.562 252.886 158.103 252.663C159.523 252.458 161.016 252.285 162.513 252.307C177.779 252.524 193.328 251.498 208.742 252.767C210.903 252.944 212.507 252.521 213.668 251.621C214.834 250.718 215.698 249.224 216.15 246.974C216.676 244.363 217.056 241.719 217.434 239.043C217.81 236.376 218.183 233.675 218.689 230.997C220.713 220.295 225.368 210.746 231.358 201.814C239.304 189.969 245.9 177.635 249.02 163.588C257.235 126.592 231.183 88.1724 193.764 82.4619C156.589 76.7888 123.024 99.9083 115.493 136.595C111.274 157.15 117.042 175.742 127.765 193.317C128.019 193.734 128.175 194.021 128.388 194.283C142.522 211.695 146.782 231.609 146.076 253.67C145.046 285.848 145.793 318.061 145.779 350.324C145.779 351.949 145.773 353.257 145.651 354.265C145.53 355.268 145.275 356.176 144.608 356.841C143.942 357.505 143.033 357.759 142.029 357.878C141.021 357.998 139.711 358.001 138.085 358C116.981 357.985 95.8756 357.979 74.7705 357.942C73.4536 357.94 72.3653 357.916 71.501 357.787C70.6346 357.658 69.8447 357.402 69.2461 356.821C68.643 356.236 68.3763 355.458 68.2422 354.605C68.1424 353.972 68.1053 353.217 68.0928 352.341L68.0869 351.425C68.0918 288.251 67.8183 225.062 68.2178 161.881C68.5563 108.371 111.328 60.6658 164.377 53.3018Z" fill="#FFFFFF" stroke="#FFFFFF" stroke-width="2"/>
<g filter="url(#filter0_d_11_24)">
<path d="M222.749 167.625C222.356 168.073 222.196 168.322 221.974 168.491C217.954 171.547 215.176 175.134 213.046 180.054C208.414 190.753 192.913 191.999 184.642 183.015C183.793 182.092 183.054 181.069 182.314 180.152C180.722 180.204 180.479 181.541 179.808 182.355C175.328 187.789 169.598 189.913 162.75 188.465C155.895 187.017 151.384 182.799 149.793 175.921C149.28 173.702 147.927 172.641 146.28 171.456C138.609 165.937 136.279 158.681 139.429 150.047C139.939 148.649 139.534 147.563 139.108 146.389C137.189 141.105 137.788 136.066 140.712 131.339C141.729 129.693 142.005 128.001 142.21 126.138C143.045 118.506 146.598 112.774 154.12 110.036C155.488 109.538 156.541 108.767 157.496 107.614C163.417 100.476 171.744 98.9636 179.465 103.82C181.475 105.085 182.733 105.059 184.706 103.826C192.364 99.0389 200.93 100.546 206.756 107.584C207.904 108.97 209.208 109.74 210.864 110.358C217.984 113.015 221.594 118.245 221.788 125.937C221.831 127.644 221.899 129.194 223.066 130.702C226.628 135.305 227.242 140.461 225.413 145.951C224.976 147.264 224.377 148.49 225.175 150.001C228.492 156.278 227.052 162.02 222.749 167.625ZM206.383 139.887C206.224 146.661 203.401 150.316 196.25 152.025C190.933 153.295 187.823 156.467 186.52 161.542C185.446 165.72 185.581 169.944 186.726 174.117C188.231 179.596 192.119 182.757 197.721 183.066C202.735 183.343 209.279 179.085 208.322 175.486C206.94 170.286 209.962 168.963 213.443 167.438C217.713 165.567 219.965 162.077 220.974 157.755C221.879 153.882 219.902 152.134 216.115 153.229C214.755 153.622 213.43 154.163 212.051 154.447C210.672 154.732 209.469 154.249 208.994 152.814C208.576 151.547 209.26 150.531 210.299 149.969C211.784 149.166 213.388 148.58 214.945 147.912C221.193 145.229 222.52 138.785 217.845 133.818C212.657 128.305 204.921 127.99 199.238 133.025C198.291 133.864 197.284 134.666 196.202 135.311C195.063 135.989 193.997 135.534 193.166 134.61C192.318 133.667 192.219 132.66 192.884 131.507C195.597 126.803 203.113 123.404 208.662 124.16C211.075 124.489 213.394 125.789 216.1 125.276C215.615 119.855 212.81 116.808 207.886 115.466C205.744 114.882 203.704 114.402 202.476 111.937C200.236 107.437 194.297 105.66 189.655 107.652C185.402 109.478 184.209 112.895 185.902 118.817C187.581 118.063 189.183 117.171 190.896 116.623C192.77 116.023 194.731 115.522 196.683 115.38C198.835 115.225 201.189 115.404 201.257 118.441C201.329 121.7 198.875 120.86 196.993 120.881C191.767 120.94 185.677 124.453 185.411 128.52C184.926 135.916 185.273 143.368 185.273 151.414C187.303 150.141 188.655 149.16 190.125 148.41C191.63 147.642 193.206 146.931 194.831 146.495C198.299 145.564 200.619 143.73 201.181 139.966C201.354 138.804 201.514 137.245 203.156 137.031C204.754 136.823 205.891 137.542 206.383 139.887ZM161.194 112.703C160.276 114.957 157.952 114.749 156.197 115.471C151.018 117.603 148.533 120.927 149.017 125.817C156.514 123.089 163.502 123.53 169.404 129.455C170.83 130.886 173.488 132.25 171.373 134.506C169.603 136.394 167.454 134.985 165.829 133.388C165.526 133.09 165.238 132.775 164.918 132.497C159.408 127.732 149.934 128.885 145.693 134.832C142.121 139.841 143.953 145.659 149.747 147.804C151.328 148.389 152.947 148.957 154.391 149.802C155.523 150.465 156.234 151.638 155.537 153.066C154.863 154.446 153.728 154.716 152.322 154.231C151.119 153.816 149.912 153.398 148.681 153.082C144.648 152.047 142.694 153.89 143.667 157.927C144.761 162.464 147.449 165.77 151.753 167.713C154.628 169.011 157.083 170.421 155.631 174.411C155.022 176.086 156.356 177.676 157.424 178.985C162.451 185.151 172.881 183.964 176.487 176.857C181.977 166.038 177.501 154.989 166.051 151.486C161.059 149.958 158.753 146.387 157.765 141.687C157.363 139.775 157.851 137.753 159.945 137.158C162.29 136.49 162.62 138.508 163.055 140.195C163.708 142.731 164.633 145.114 167.557 145.839C171.413 146.795 175.014 148.289 178.789 151.552C178.789 144.124 178.62 137.541 178.847 130.972C179.004 126.418 176.579 123.873 172.94 122.057C170.753 120.965 168.385 120.541 165.911 120.937C164.69 121.132 163.572 120.908 163.269 119.486C162.952 118.001 163.186 116.65 164.712 115.863C166.471 114.955 168.316 115.094 170.098 115.651C172.864 116.515 175.583 117.529 178.357 118.491C179.498 111.517 177.882 107.942 173.124 107.25C168.357 106.557 164.018 107.335 161.194 112.703Z" fill="#FFFFFF"/>
<path d="M167.633 100.234C171.694 99.5231 175.955 100.431 179.998 102.974C180.932 103.561 181.557 103.761 182.097 103.76C182.638 103.758 183.256 103.554 184.176 102.979C188.192 100.468 192.495 99.5816 196.587 100.285C200.677 100.988 204.48 103.266 207.526 106.946C208.531 108.16 209.668 108.845 211.213 109.421C214.927 110.807 217.79 112.89 219.743 115.687C221.695 118.481 222.687 121.914 222.788 125.912C222.831 127.628 222.911 128.868 223.857 130.091C227.645 134.985 228.284 140.496 226.362 146.267C225.872 147.739 225.504 148.482 226.06 149.533C227.812 152.849 228.328 156.075 227.807 159.229C227.288 162.362 225.757 165.349 223.542 168.234L223.522 168.261L223.5 168.285C223.313 168.498 223.2 168.641 223.063 168.805C222.94 168.952 222.785 169.131 222.579 169.287C218.703 172.233 216.029 175.681 213.964 180.451C211.477 186.195 206.085 189.357 200.304 189.911C194.529 190.464 188.27 188.432 183.906 183.692C183.181 182.904 182.503 182.014 181.899 181.244C181.738 181.317 181.622 181.431 181.506 181.581C181.381 181.742 181.27 181.928 181.12 182.183C180.984 182.414 180.804 182.718 180.579 182.991C178.245 185.822 175.551 187.832 172.507 188.932C169.461 190.032 166.124 190.201 162.543 189.444C158.965 188.688 155.945 187.195 153.605 184.95C151.41 182.844 149.856 180.116 148.984 176.814L148.819 176.146C148.396 174.317 147.33 173.443 145.696 172.268C141.731 169.415 139.071 166.058 137.844 162.225C136.615 158.388 136.855 154.185 138.489 149.705C138.861 148.687 138.603 147.928 138.168 146.73C136.141 141.15 136.782 135.793 139.861 130.813C140.754 129.371 141.014 127.871 141.216 126.028C141.647 122.09 142.787 118.575 144.842 115.674C146.903 112.764 149.844 110.529 153.777 109.097C154.965 108.664 155.875 108.003 156.727 106.976C159.813 103.254 163.576 100.945 167.633 100.234ZM201.581 112.383C199.608 108.421 194.272 106.759 190.05 108.571C188.114 109.402 187 110.53 186.495 112.02C186.043 113.351 186.033 115.098 186.567 117.401C187.843 116.79 189.208 116.113 190.592 115.67C192.498 115.06 194.545 114.532 196.611 114.383C197.69 114.305 199.052 114.283 200.175 114.808C200.765 115.084 201.296 115.513 201.675 116.146C202.048 116.772 202.236 117.533 202.256 118.419C202.276 119.341 202.124 120.128 201.722 120.742C201.299 121.386 200.691 121.704 200.09 121.848C199.521 121.983 198.917 121.974 198.413 121.948C197.854 121.92 197.435 121.876 197.004 121.881C194.589 121.908 191.939 122.74 189.875 124.043C187.773 125.369 186.51 127.024 186.408 128.585C185.963 135.384 186.222 142.193 186.264 149.59C187.507 148.781 188.571 148.079 189.67 147.519C191.198 146.739 192.847 145.992 194.572 145.529C196.209 145.09 197.481 144.461 198.401 143.573C199.307 142.7 199.939 141.511 200.191 139.818C200.269 139.298 200.369 138.441 200.715 137.714C201.104 136.895 201.818 136.197 203.026 136.039C204.005 135.912 204.995 136.054 205.818 136.728C206.613 137.378 207.093 138.4 207.362 139.682L207.386 139.795L207.383 139.91C207.3 143.424 206.524 146.281 204.712 148.489C202.903 150.694 200.176 152.114 196.482 152.997C193.968 153.598 192.035 154.633 190.583 156.068C189.131 157.504 188.104 159.393 187.488 161.79C186.462 165.784 186.586 169.831 187.69 173.853C188.396 176.424 189.644 178.393 191.318 179.755C192.992 181.117 195.154 181.923 197.776 182.067C200.016 182.191 202.69 181.289 204.692 179.906C205.687 179.22 206.459 178.453 206.924 177.702C207.386 176.955 207.503 176.298 207.355 175.743C206.606 172.925 207.007 170.92 208.304 169.428C209.499 168.052 211.365 167.256 213.042 166.521C216.953 164.808 219.044 161.626 220.001 157.527C220.422 155.723 220.084 154.784 219.628 154.365C219.16 153.936 218.165 153.677 216.393 154.189C215.735 154.38 215.099 154.601 214.401 154.829C213.72 155.052 213 155.273 212.253 155.427C211.404 155.602 210.52 155.559 209.738 155.171C208.938 154.773 208.355 154.067 208.045 153.127C207.752 152.242 207.838 151.393 208.211 150.669C208.572 149.967 209.171 149.442 209.823 149.09C211.361 148.258 213.062 147.632 214.551 146.993C217.426 145.759 219.06 143.715 219.512 141.521C219.964 139.325 219.271 136.792 217.117 134.503C212.304 129.388 205.184 129.093 199.9 133.774C198.931 134.633 197.871 135.481 196.713 136.171L196.712 136.17C195.917 136.643 195.085 136.746 194.297 136.523C193.544 136.311 192.916 135.827 192.422 135.278C191.891 134.688 191.534 134.006 191.462 133.229C191.39 132.457 191.612 131.711 192.018 131.008C193.51 128.421 196.26 126.276 199.291 124.878C202.327 123.478 205.786 122.759 208.797 123.169C210.07 123.342 211.413 123.791 212.512 124.063C213.36 124.274 214.168 124.412 214.985 124.39C214.666 122.318 213.951 120.721 212.898 119.492C211.684 118.075 209.946 117.064 207.623 116.431C205.536 115.862 203.034 115.301 201.581 112.383ZM172.98 108.24C170.679 107.906 168.596 107.945 166.788 108.638C165.016 109.316 163.402 110.662 162.089 113.148C161.48 114.581 160.403 115.233 159.339 115.605C158.825 115.785 158.284 115.91 157.826 116.022C157.345 116.14 156.938 116.248 156.577 116.396C154.096 117.417 152.363 118.684 151.3 120.188C150.458 121.379 149.995 122.776 149.96 124.44C153.372 123.354 156.727 122.921 159.956 123.402C163.606 123.946 167.021 125.646 170.112 128.749C170.436 129.074 170.814 129.381 171.269 129.778C171.69 130.147 172.166 130.585 172.527 131.086C172.896 131.596 173.199 132.247 173.156 133.021C173.113 133.797 172.734 134.517 172.103 135.19C171.544 135.786 170.907 136.168 170.211 136.327C169.52 136.485 168.846 136.405 168.234 136.204C167.046 135.814 165.968 134.926 165.129 134.102C164.771 133.75 164.555 133.505 164.264 133.254C161.755 131.085 158.304 130.233 154.95 130.641C151.596 131.048 148.44 132.703 146.507 135.413C144.879 137.696 144.532 140.08 145.162 142.093C145.793 144.107 147.447 145.886 150.094 146.866C151.642 147.439 153.359 148.04 154.896 148.939C155.594 149.348 156.235 149.954 156.572 150.761C156.923 151.599 156.901 152.55 156.436 153.504C156.008 154.379 155.372 155.015 154.518 155.297C153.692 155.569 152.818 155.46 151.997 155.177C150.786 154.759 149.618 154.355 148.433 154.051C146.529 153.563 145.481 153.853 144.989 154.324C144.507 154.788 144.182 155.796 144.64 157.693C145.662 161.934 148.146 164.987 152.165 166.802C153.575 167.438 155.137 168.201 156.103 169.437C157.158 170.788 157.383 172.521 156.571 174.753C156.396 175.234 156.469 175.75 156.79 176.383C157.122 177.038 157.646 177.675 158.199 178.354C162.762 183.949 172.312 182.877 175.596 176.404C178.226 171.219 178.436 166.056 176.696 161.807C174.958 157.561 171.228 154.116 165.759 152.442C163.083 151.624 161.081 150.238 159.622 148.396C158.173 146.567 157.301 144.341 156.786 141.893C156.557 140.804 156.564 139.607 156.993 138.552C157.439 137.457 158.319 136.58 159.671 136.195C160.386 135.992 161.061 135.962 161.673 136.164C162.296 136.37 162.735 136.779 163.043 137.23C163.34 137.667 163.531 138.167 163.671 138.619C163.809 139.066 163.924 139.558 164.023 139.945C164.673 142.466 165.475 144.292 167.798 144.868C171.207 145.714 174.453 146.981 177.783 149.464C177.759 142.898 177.642 136.902 177.848 130.938C177.919 128.86 177.405 127.31 176.508 126.076C175.596 124.822 174.234 123.82 172.493 122.951C170.479 121.946 168.323 121.564 166.069 121.924C165.382 122.034 164.568 122.056 163.839 121.731C163.039 121.375 162.5 120.675 162.291 119.694C162.113 118.857 162.063 117.949 162.352 117.094C162.652 116.204 163.282 115.475 164.254 114.974C166.336 113.9 168.478 114.098 170.396 114.696C172.794 115.445 175.173 116.309 177.54 117.143C177.884 114.343 177.687 112.323 177.045 110.935C176.36 109.452 175.099 108.548 172.98 108.24Z" stroke="#FFFFFF" stroke-width="2"/>
</g>
<path d="M185.999 206.21C185.999 217.73 186.004 228.826 185.992 239.92V239.921C185.991 241.079 185.948 242.26 185.811 243.44C185.731 244.127 185.433 244.769 184.877 245.244C184.33 245.711 183.619 245.945 182.828 245.99C181.933 246.041 181.099 245.888 180.433 245.43C179.746 244.957 179.364 244.25 179.227 243.457C179.12 242.845 179.06 242.217 179.06 241.588C179.04 224.521 179.016 207.452 179.044 190.383C179.044 190.037 179.016 189.825 179.003 189.335C178.993 188.937 179.002 188.444 179.136 187.964C179.276 187.459 179.56 186.946 180.095 186.568C180.612 186.203 181.266 186.033 182.021 186.005C182.811 185.975 183.5 186.092 184.08 186.376C184.672 186.666 185.087 187.099 185.366 187.593C185.888 188.516 185.921 189.648 185.933 190.407C186.012 195.535 185.985 200.671 185.999 206.208V206.21Z" fill="#FFFFFF" stroke="#FFFFFF" stroke-width="2"/>
<g filter="url(#filter1_d_11_24)">
<path d="M200.337 156.92C202.85 153.552 204.504 155.146 205.574 157.647C207.262 161.591 203.64 171.057 199.825 173.328C198.4 174.176 197.065 174.362 195.85 173.057C194.614 171.729 194.772 170.206 196.024 169.17C199.861 165.993 200.341 161.749 200.337 156.92Z" fill="#FFFFFF"/>
<path d="M199.535 156.322C200.834 154.582 202.284 153.619 203.816 154.135C204.506 154.367 205.041 154.862 205.451 155.396C205.866 155.935 206.209 156.586 206.494 157.254C207.013 158.467 207.089 159.997 206.919 161.551C206.746 163.126 206.309 164.831 205.7 166.464C205.091 168.098 204.299 169.688 203.4 171.03C202.511 172.358 201.47 173.511 200.336 174.187C199.551 174.654 198.672 175.015 197.743 175C196.767 174.984 195.881 174.558 195.118 173.738C194.354 172.918 193.944 171.947 194.006 170.943C194.067 169.941 194.59 169.059 195.387 168.399C198.847 165.535 199.341 161.719 199.337 156.921V156.589L199.535 156.322Z" stroke="#FFFFFF" stroke-width="2"/>
</g>
<g filter="url(#filter2_d_11_24)">
<path d="M159.02 161.05C159.013 159.486 158.923 158.257 159.192 157.116C159.486 155.871 160.406 155.04 161.75 155.001C163.174 154.961 164.125 155.951 164.159 157.173C164.293 161.972 165.286 166.344 168.524 170.079C169.513 171.22 168.848 172.684 167.556 173.542C166.171 174.461 164.955 173.881 164.001 172.824C161.098 169.61 159.75 165.664 159.02 161.05Z" fill="#FFFFFF"/>
<path d="M161.721 154.002C163.694 153.946 165.108 155.367 165.158 157.146C165.289 161.823 166.252 165.931 169.28 169.424C170.023 170.28 170.151 171.306 169.845 172.231C169.554 173.11 168.892 173.855 168.109 174.375C167.2 174.979 166.254 175.133 165.354 174.889C164.502 174.657 163.804 174.097 163.259 173.494C160.174 170.078 158.778 165.917 158.032 161.206L158.021 161.13L158.02 161.054C158.014 159.597 157.914 158.179 158.219 156.887C158.609 155.232 159.893 154.054 161.721 154.002Z" stroke="#FFFFFF" stroke-width="2"/>
</g>
<mask id="path-9-outside-1_11_24" maskUnits="userSpaceOnUse" x="399" y="88" width="818" height="161" fill="black">
<rect fill="white" x="399" y="88" width="818" height="161"/>
<path d="M480.67 245L448.55 186.7H439.53V245H401.91V90.56H465.05C477.223 90.56 487.563 92.6867 496.07 96.94C504.723 101.193 511.176 107.06 515.43 114.54C519.683 121.873 521.81 130.087 521.81 139.18C521.81 149.447 518.876 158.613 513.01 166.68C507.29 174.747 498.783 180.467 487.49 183.84L523.13 245H480.67ZM439.53 160.08H462.85C469.743 160.08 474.876 158.393 478.25 155.02C481.77 151.647 483.53 146.88 483.53 140.72C483.53 134.853 481.77 130.233 478.25 126.86C474.876 123.487 469.743 121.8 462.85 121.8H439.53V160.08ZM583.045 120.7V151.94H633.425V180.98H583.045V214.86H640.025V245H545.425V90.56H640.025V120.7H583.045ZM704.489 214.2H770.929V245H661.809V216.4L727.809 121.36H661.809V90.56H770.929V119.16L704.489 214.2ZM832.463 90.56V182.96C832.463 192.2 834.737 199.313 839.283 204.3C843.83 209.287 850.503 211.78 859.303 211.78C868.103 211.78 874.85 209.287 879.543 204.3C884.237 199.313 886.583 192.2 886.583 182.96V90.56H924.203V182.74C924.203 196.527 921.27 208.187 915.403 217.72C909.537 227.253 901.617 234.44 891.643 239.28C881.817 244.12 870.817 246.54 858.643 246.54C846.47 246.54 835.543 244.193 825.863 239.5C816.33 234.66 808.777 227.473 803.203 217.94C797.63 208.26 794.843 196.527 794.843 182.74V90.56H832.463ZM988.24 215.96H1037.52V245H950.62V90.56H988.24V215.96ZM1093.08 90.56V245H1055.46V90.56H1093.08ZM1157.97 120.7V151.94H1208.35V180.98H1157.97V214.86H1214.95V245H1120.35V90.56H1214.95V120.7H1157.97Z"/>
</mask>
<path d="M480.67 245L448.55 186.7H439.53V245H401.91V90.56H465.05C477.223 90.56 487.563 92.6867 496.07 96.94C504.723 101.193 511.176 107.06 515.43 114.54C519.683 121.873 521.81 130.087 521.81 139.18C521.81 149.447 518.876 158.613 513.01 166.68C507.29 174.747 498.783 180.467 487.49 183.84L523.13 245H480.67ZM439.53 160.08H462.85C469.743 160.08 474.876 158.393 478.25 155.02C481.77 151.647 483.53 146.88 483.53 140.72C483.53 134.853 481.77 130.233 478.25 126.86C474.876 123.487 469.743 121.8 462.85 121.8H439.53V160.08ZM583.045 120.7V151.94H633.425V180.98H583.045V214.86H640.025V245H545.425V90.56H640.025V120.7H583.045ZM704.489 214.2H770.929V245H661.809V216.4L727.809 121.36H661.809V90.56H770.929V119.16L704.489 214.2ZM832.463 90.56V182.96C832.463 192.2 834.737 199.313 839.283 204.3C843.83 209.287 850.503 211.78 859.303 211.78C868.103 211.78 874.85 209.287 879.543 204.3C884.237 199.313 886.583 192.2 886.583 182.96V90.56H924.203V182.74C924.203 196.527 921.27 208.187 915.403 217.72C909.537 227.253 901.617 234.44 891.643 239.28C881.817 244.12 870.817 246.54 858.643 246.54C846.47 246.54 835.543 244.193 825.863 239.5C816.33 234.66 808.777 227.473 803.203 217.94C797.63 208.26 794.843 196.527 794.843 182.74V90.56H832.463ZM988.24 215.96H1037.52V245H950.62V90.56H988.24V215.96ZM1093.08 90.56V245H1055.46V90.56H1093.08ZM1157.97 120.7V151.94H1208.35V180.98H1157.97V214.86H1214.95V245H1120.35V90.56H1214.95V120.7H1157.97Z" fill="#FFFFFF"/>
<path d="M480.67 245L478.918 245.965L479.488 247H480.67V245ZM448.55 186.7L450.301 185.735L449.731 184.7H448.55V186.7ZM439.53 186.7V184.7H437.53V186.7H439.53ZM439.53 245V247H441.53V245H439.53ZM401.91 245H399.91V247H401.91V245ZM401.91 90.56V88.56H399.91V90.56H401.91ZM496.07 96.94L495.175 98.7289L495.187 98.7349L496.07 96.94ZM515.43 114.54L513.691 115.529L513.695 115.536L513.699 115.543L515.43 114.54ZM513.01 166.68L511.392 165.504L511.385 165.513L511.378 165.523L513.01 166.68ZM487.49 183.84L486.917 181.924L484.482 182.651L485.762 184.847L487.49 183.84ZM523.13 245V247H526.61L524.858 243.993L523.13 245ZM439.53 160.08H437.53V162.08H439.53V160.08ZM478.25 155.02L476.866 153.576L476.85 153.591L476.835 153.606L478.25 155.02ZM478.25 126.86L476.835 128.274L476.85 128.289L476.866 128.304L478.25 126.86ZM439.53 121.8V119.8H437.53V121.8H439.53ZM482.421 244.035L450.301 185.735L446.798 187.665L478.918 245.965L482.421 244.035ZM448.55 184.7H439.53V188.7H448.55V184.7ZM437.53 186.7V245H441.53V186.7H437.53ZM439.53 243H401.91V247H439.53V243ZM403.91 245V90.56H399.91V245H403.91ZM401.91 92.56H465.05V88.56H401.91V92.56ZM465.05 92.56C476.997 92.56 487.013 94.6477 495.175 98.7288L496.964 95.1511C488.113 90.7256 477.449 88.56 465.05 88.56V92.56ZM495.187 98.7349C503.526 102.833 509.659 108.438 513.691 115.529L517.168 113.551C512.693 105.682 505.92 99.5531 496.952 95.1451L495.187 98.7349ZM513.699 115.543C517.763 122.55 519.81 130.413 519.81 139.18H523.81C523.81 129.761 521.603 121.197 517.16 113.537L513.699 115.543ZM519.81 139.18C519.81 149.037 517.002 157.789 511.392 165.504L514.627 167.856C520.75 159.437 523.81 149.856 523.81 139.18H519.81ZM511.378 165.523C505.963 173.159 497.868 178.653 486.917 181.924L488.062 185.756C499.698 182.281 508.616 176.334 514.641 167.837L511.378 165.523ZM485.762 184.847L521.402 246.007L524.858 243.993L489.218 182.833L485.762 184.847ZM523.13 243H480.67V247H523.13V243ZM439.53 162.08H462.85V158.08H439.53V162.08ZM462.85 162.08C470.037 162.08 475.776 160.322 479.664 156.434L476.835 153.606C473.977 156.465 469.449 158.08 462.85 158.08V162.08ZM479.633 156.464C483.645 152.62 485.53 147.273 485.53 140.72H481.53C481.53 146.487 479.894 150.674 476.866 153.576L479.633 156.464ZM485.53 140.72C485.53 134.427 483.626 129.242 479.633 125.416L476.866 128.304C479.914 131.225 481.53 135.279 481.53 140.72H485.53ZM479.664 125.446C475.776 121.558 470.037 119.8 462.85 119.8V123.8C469.449 123.8 473.977 125.415 476.835 128.274L479.664 125.446ZM462.85 119.8H439.53V123.8H462.85V119.8ZM437.53 121.8V160.08H441.53V121.8H437.53ZM583.045 120.7V118.7H581.045V120.7H583.045ZM583.045 151.94H581.045V153.94H583.045V151.94ZM633.425 151.94H635.425V149.94H633.425V151.94ZM633.425 180.98V182.98H635.425V180.98H633.425ZM583.045 180.98V178.98H581.045V180.98H583.045ZM583.045 214.86H581.045V216.86H583.045V214.86ZM640.025 214.86H642.025V212.86H640.025V214.86ZM640.025 245V247H642.025V245H640.025ZM545.425 245H543.425V247H545.425V245ZM545.425 90.56V88.56H543.425V90.56H545.425ZM640.025 90.56H642.025V88.56H640.025V90.56ZM640.025 120.7V122.7H642.025V120.7H640.025ZM581.045 120.7V151.94H585.045V120.7H581.045ZM583.045 153.94H633.425V149.94H583.045V153.94ZM631.425 151.94V180.98H635.425V151.94H631.425ZM633.425 178.98H583.045V182.98H633.425V178.98ZM581.045 180.98V214.86H585.045V180.98H581.045ZM583.045 216.86H640.025V212.86H583.045V216.86ZM638.025 214.86V245H642.025V214.86H638.025ZM640.025 243H545.425V247H640.025V243ZM547.425 245V90.56H543.425V245H547.425ZM545.425 92.56H640.025V88.56H545.425V92.56ZM638.025 90.56V120.7H642.025V90.56H638.025ZM640.025 118.7H583.045V122.7H640.025V118.7ZM704.489 214.2L702.849 213.054L700.65 216.2H704.489V214.2ZM770.929 214.2H772.929V212.2H770.929V214.2ZM770.929 245V247H772.929V245H770.929ZM661.809 245H659.809V247H661.809V245ZM661.809 216.4L660.166 215.259L659.809 215.774V216.4H661.809ZM727.809 121.36L729.451 122.501L731.632 119.36H727.809V121.36ZM661.809 121.36H659.809V123.36H661.809V121.36ZM661.809 90.56V88.56H659.809V90.56H661.809ZM770.929 90.56H772.929V88.56H770.929V90.56ZM770.929 119.16L772.568 120.306L772.929 119.79V119.16H770.929ZM704.489 216.2H770.929V212.2H704.489V216.2ZM768.929 214.2V245H772.929V214.2H768.929ZM770.929 243H661.809V247H770.929V243ZM663.809 245V216.4H659.809V245H663.809ZM663.451 217.541L729.451 122.501L726.166 120.219L660.166 215.259L663.451 217.541ZM727.809 119.36H661.809V123.36H727.809V119.36ZM663.809 121.36V90.56H659.809V121.36H663.809ZM661.809 92.56H770.929V88.56H661.809V92.56ZM768.929 90.56V119.16H772.929V90.56H768.929ZM769.289 118.014L702.849 213.054L706.128 215.346L772.568 120.306L769.289 118.014ZM832.463 90.56H834.463V88.56H832.463V90.56ZM839.283 204.3L837.805 205.648V205.648L839.283 204.3ZM879.543 204.3L881 205.671V205.671L879.543 204.3ZM886.583 90.56V88.56H884.583V90.56H886.583ZM924.203 90.56H926.203V88.56H924.203V90.56ZM915.403 217.72L917.107 218.768V218.768L915.403 217.72ZM891.643 239.28L890.77 237.481L890.76 237.486L891.643 239.28ZM825.863 239.5L824.958 241.283L824.974 241.292L824.991 241.3L825.863 239.5ZM803.203 217.94L801.47 218.938L801.477 218.949L803.203 217.94ZM794.843 90.56V88.56H792.843V90.56H794.843ZM830.463 90.56V182.96H834.463V90.56H830.463ZM830.463 182.96C830.463 192.513 832.816 200.175 837.805 205.648L840.761 202.952C836.658 198.452 834.463 191.887 834.463 182.96H830.463ZM837.805 205.648C842.838 211.167 850.122 213.78 859.303 213.78V209.78C850.885 209.78 844.822 207.406 840.761 202.952L837.805 205.648ZM859.303 213.78C868.489 213.78 875.828 211.166 881 205.671L878.087 202.929C873.872 207.408 867.718 209.78 859.303 209.78V213.78ZM881 205.671C886.149 200.199 888.583 192.528 888.583 182.96H884.583C884.583 191.872 882.324 198.427 878.087 202.929L881 205.671ZM888.583 182.96V90.56H884.583V182.96H888.583ZM886.583 92.56H924.203V88.56H886.583V92.56ZM922.203 90.56V182.74H926.203V90.56H922.203ZM922.203 182.74C922.203 196.242 919.332 207.519 913.7 216.672L917.107 218.768C923.208 208.854 926.203 196.811 926.203 182.74H922.203ZM913.7 216.672C908.031 225.884 900.397 232.809 890.77 237.481L892.516 241.079C902.836 236.071 911.042 228.622 917.107 218.768L913.7 216.672ZM890.76 237.486C881.237 242.176 870.545 244.54 858.643 244.54V248.54C871.089 248.54 882.396 246.064 892.527 241.074L890.76 237.486ZM858.643 244.54C846.732 244.54 836.11 242.245 826.736 237.7L824.991 241.3C834.977 246.141 846.208 248.54 858.643 248.54V244.54ZM826.769 237.717C817.589 233.056 810.316 226.144 804.93 216.931L801.477 218.949C807.237 228.803 815.071 236.264 824.958 241.283L826.769 237.717ZM804.937 216.942C799.575 207.629 796.843 196.258 796.843 182.74H792.843C792.843 196.796 795.685 208.891 801.47 218.938L804.937 216.942ZM796.843 182.74V90.56H792.843V182.74H796.843ZM794.843 92.56H832.463V88.56H794.843V92.56ZM988.24 215.96H986.24V217.96H988.24V215.96ZM1037.52 215.96H1039.52V213.96H1037.52V215.96ZM1037.52 245V247H1039.52V245H1037.52ZM950.62 245H948.62V247H950.62V245ZM950.62 90.56V88.56H948.62V90.56H950.62ZM988.24 90.56H990.24V88.56H988.24V90.56ZM988.24 217.96H1037.52V213.96H988.24V217.96ZM1035.52 215.96V245H1039.52V215.96H1035.52ZM1037.52 243H950.62V247H1037.52V243ZM952.62 245V90.56H948.62V245H952.62ZM950.62 92.56H988.24V88.56H950.62V92.56ZM986.24 90.56V215.96H990.24V90.56H986.24ZM1093.08 90.56H1095.08V88.56H1093.08V90.56ZM1093.08 245V247H1095.08V245H1093.08ZM1055.46 245H1053.46V247H1055.46V245ZM1055.46 90.56V88.56H1053.46V90.56H1055.46ZM1091.08 90.56V245H1095.08V90.56H1091.08ZM1093.08 243H1055.46V247H1093.08V243ZM1057.46 245V90.56H1053.46V245H1057.46ZM1055.46 92.56H1093.08V88.56H1055.46V92.56ZM1157.97 120.7V118.7H1155.97V120.7H1157.97ZM1157.97 151.94H1155.97V153.94H1157.97V151.94ZM1208.35 151.94H1210.35V149.94H1208.35V151.94ZM1208.35 180.98V182.98H1210.35V180.98H1208.35ZM1157.97 180.98V178.98H1155.97V180.98H1157.97ZM1157.97 214.86H1155.97V216.86H1157.97V214.86ZM1214.95 214.86H1216.95V212.86H1214.95V214.86ZM1214.95 245V247H1216.95V245H1214.95ZM1120.35 245H1118.35V247H1120.35V245ZM1120.35 90.56V88.56H1118.35V90.56H1120.35ZM1214.95 90.56H1216.95V88.56H1214.95V90.56ZM1214.95 120.7V122.7H1216.95V120.7H1214.95ZM1155.97 120.7V151.94H1159.97V120.7H1155.97ZM1157.97 153.94H1208.35V149.94H1157.97V153.94ZM1206.35 151.94V180.98H1210.35V151.94H1206.35ZM1208.35 178.98H1157.97V182.98H1208.35V178.98ZM1155.97 180.98V214.86H1159.97V180.98H1155.97ZM1157.97 216.86H1214.95V212.86H1157.97V216.86ZM1212.95 214.86V245H1216.95V214.86H1212.95ZM1214.95 243H1120.35V247H1214.95V243ZM1122.35 245V90.56H1118.35V245H1122.35ZM1120.35 92.56H1214.95V88.56H1120.35V92.56ZM1212.95 90.56V120.7H1216.95V90.56H1212.95ZM1214.95 118.7H1157.97V122.7H1214.95V118.7Z" fill="white" mask="url(#path-9-outside-1_11_24)"/>
<mask id="path-11-outside-2_11_24" maskUnits="userSpaceOnUse" x="458" y="262" width="692" height="90" fill="black">
<rect fill="white" x="458" y="262" width="692" height="90"/>
<path d="M540.234 265.6L508.914 349H493.074L461.634 265.6H476.274L500.994 334.96L525.834 265.6H540.234ZM579.754 276.64V301.12H608.554V312.28H579.754V337.84H612.154V349H566.074V265.48H612.154V276.64H579.754ZM711.924 349H698.244L657.084 286.72V349H643.404V265.48H657.084L698.244 327.64V265.48H711.924V349ZM798.168 265.6V276.76H775.968V349H762.288V276.76H739.968V265.6H798.168ZM839.983 265.6V318.76C839.983 325.08 841.623 329.84 844.903 333.04C848.263 336.24 852.903 337.84 858.823 337.84C864.823 337.84 869.463 336.24 872.743 333.04C876.103 329.84 877.783 325.08 877.783 318.76V265.6H891.463V318.52C891.463 325.32 889.983 331.08 887.023 335.8C884.063 340.52 880.103 344.04 875.143 346.36C870.183 348.68 864.703 349.84 858.703 349.84C852.703 349.84 847.223 348.68 842.263 346.36C837.383 344.04 833.503 340.52 830.623 335.8C827.743 331.08 826.303 325.32 826.303 318.52V265.6H839.983ZM966.994 349L947.794 315.64H937.354V349H923.674V265.6H952.474C958.874 265.6 964.274 266.72 968.674 268.96C973.154 271.2 976.474 274.2 978.634 277.96C980.874 281.72 981.994 285.92 981.994 290.56C981.994 296 980.394 300.96 977.194 305.44C974.074 309.84 969.234 312.84 962.674 314.44L983.314 349H966.994ZM937.354 304.72H952.474C957.594 304.72 961.434 303.44 963.994 300.88C966.634 298.32 967.954 294.88 967.954 290.56C967.954 286.24 966.674 282.88 964.114 280.48C961.554 278 957.674 276.76 952.474 276.76H937.354V304.72ZM1027.57 276.64V301.12H1056.37V312.28H1027.57V337.84H1059.97V349H1013.89V265.48H1059.97V276.64H1027.57ZM1118.7 349.84C1113.1 349.84 1108.06 348.88 1103.58 346.96C1099.1 344.96 1095.58 342.16 1093.02 338.56C1090.46 334.96 1089.18 330.76 1089.18 325.96H1103.82C1104.14 329.56 1105.54 332.52 1108.02 334.84C1110.58 337.16 1114.14 338.32 1118.7 338.32C1123.42 338.32 1127.1 337.2 1129.74 334.96C1132.38 332.64 1133.7 329.68 1133.7 326.08C1133.7 323.28 1132.86 321 1131.18 319.24C1129.58 317.48 1127.54 316.12 1125.06 315.16C1122.66 314.2 1119.3 313.16 1114.98 312.04C1109.54 310.6 1105.1 309.16 1101.66 307.72C1098.3 306.2 1095.42 303.88 1093.02 300.76C1090.62 297.64 1089.42 293.48 1089.42 288.28C1089.42 283.48 1090.62 279.28 1093.02 275.68C1095.42 272.08 1098.78 269.32 1103.1 267.4C1107.42 265.48 1112.42 264.52 1118.1 264.52C1126.18 264.52 1132.78 266.56 1137.9 270.64C1143.1 274.64 1145.98 280.16 1146.54 287.2H1131.42C1131.18 284.16 1129.74 281.56 1127.1 279.4C1124.46 277.24 1120.98 276.16 1116.66 276.16C1112.74 276.16 1109.54 277.16 1107.06 279.16C1104.58 281.16 1103.34 284.04 1103.34 287.8C1103.34 290.36 1104.1 292.48 1105.62 294.16C1107.22 295.76 1109.22 297.04 1111.62 298C1114.02 298.96 1117.3 300 1121.46 301.12C1126.98 302.64 1131.46 304.16 1134.9 305.68C1138.42 307.2 1141.38 309.56 1143.78 312.76C1146.26 315.88 1147.5 320.08 1147.5 325.36C1147.5 329.6 1146.34 333.6 1144.02 337.36C1141.78 341.12 1138.46 344.16 1134.06 346.48C1129.74 348.72 1124.62 349.84 1118.7 349.84Z"/>
</mask>
<path d="M540.234 265.6L508.914 349H493.074L461.634 265.6H476.274L500.994 334.96L525.834 265.6H540.234ZM579.754 276.64V301.12H608.554V312.28H579.754V337.84H612.154V349H566.074V265.48H612.154V276.64H579.754ZM711.924 349H698.244L657.084 286.72V349H643.404V265.48H657.084L698.244 327.64V265.48H711.924V349ZM798.168 265.6V276.76H775.968V349H762.288V276.76H739.968V265.6H798.168ZM839.983 265.6V318.76C839.983 325.08 841.623 329.84 844.903 333.04C848.263 336.24 852.903 337.84 858.823 337.84C864.823 337.84 869.463 336.24 872.743 333.04C876.103 329.84 877.783 325.08 877.783 318.76V265.6H891.463V318.52C891.463 325.32 889.983 331.08 887.023 335.8C884.063 340.52 880.103 344.04 875.143 346.36C870.183 348.68 864.703 349.84 858.703 349.84C852.703 349.84 847.223 348.68 842.263 346.36C837.383 344.04 833.503 340.52 830.623 335.8C827.743 331.08 826.303 325.32 826.303 318.52V265.6H839.983ZM966.994 349L947.794 315.64H937.354V349H923.674V265.6H952.474C958.874 265.6 964.274 266.72 968.674 268.96C973.154 271.2 976.474 274.2 978.634 277.96C980.874 281.72 981.994 285.92 981.994 290.56C981.994 296 980.394 300.96 977.194 305.44C974.074 309.84 969.234 312.84 962.674 314.44L983.314 349H966.994ZM937.354 304.72H952.474C957.594 304.72 961.434 303.44 963.994 300.88C966.634 298.32 967.954 294.88 967.954 290.56C967.954 286.24 966.674 282.88 964.114 280.48C961.554 278 957.674 276.76 952.474 276.76H937.354V304.72ZM1027.57 276.64V301.12H1056.37V312.28H1027.57V337.84H1059.97V349H1013.89V265.48H1059.97V276.64H1027.57ZM1118.7 349.84C1113.1 349.84 1108.06 348.88 1103.58 346.96C1099.1 344.96 1095.58 342.16 1093.02 338.56C1090.46 334.96 1089.18 330.76 1089.18 325.96H1103.82C1104.14 329.56 1105.54 332.52 1108.02 334.84C1110.58 337.16 1114.14 338.32 1118.7 338.32C1123.42 338.32 1127.1 337.2 1129.74 334.96C1132.38 332.64 1133.7 329.68 1133.7 326.08C1133.7 323.28 1132.86 321 1131.18 319.24C1129.58 317.48 1127.54 316.12 1125.06 315.16C1122.66 314.2 1119.3 313.16 1114.98 312.04C1109.54 310.6 1105.1 309.16 1101.66 307.72C1098.3 306.2 1095.42 303.88 1093.02 300.76C1090.62 297.64 1089.42 293.48 1089.42 288.28C1089.42 283.48 1090.62 279.28 1093.02 275.68C1095.42 272.08 1098.78 269.32 1103.1 267.4C1107.42 265.48 1112.42 264.52 1118.1 264.52C1126.18 264.52 1132.78 266.56 1137.9 270.64C1143.1 274.64 1145.98 280.16 1146.54 287.2H1131.42C1131.18 284.16 1129.74 281.56 1127.1 279.4C1124.46 277.24 1120.98 276.16 1116.66 276.16C1112.74 276.16 1109.54 277.16 1107.06 279.16C1104.58 281.16 1103.34 284.04 1103.34 287.8C1103.34 290.36 1104.1 292.48 1105.62 294.16C1107.22 295.76 1109.22 297.04 1111.62 298C1114.02 298.96 1117.3 300 1121.46 301.12C1126.98 302.64 1131.46 304.16 1134.9 305.68C1138.42 307.2 1141.38 309.56 1143.78 312.76C1146.26 315.88 1147.5 320.08 1147.5 325.36C1147.5 329.6 1146.34 333.6 1144.02 337.36C1141.78 341.12 1138.46 344.16 1134.06 346.48C1129.74 348.72 1124.62 349.84 1118.7 349.84Z" fill="#FFFFFF"/>
<path d="M540.234 265.6L542.106 266.303L543.121 263.6H540.234V265.6ZM508.914 349V351H510.299L510.786 349.703L508.914 349ZM493.074 349L491.202 349.705L491.69 351H493.074V349ZM461.634 265.6V263.6H458.743L459.762 266.305L461.634 265.6ZM476.274 265.6L478.158 264.929L477.684 263.6H476.274V265.6ZM500.994 334.96L499.11 335.631L500.989 340.905L502.877 335.634L500.994 334.96ZM525.834 265.6V263.6H524.426L523.951 264.926L525.834 265.6ZM538.362 264.897L507.042 348.297L510.786 349.703L542.106 266.303L538.362 264.897ZM508.914 347H493.074V351H508.914V347ZM494.945 348.295L463.505 264.895L459.762 266.305L491.202 349.705L494.945 348.295ZM461.634 267.6H476.274V263.6H461.634V267.6ZM474.39 266.271L499.11 335.631L502.878 334.289L478.158 264.929L474.39 266.271ZM502.877 335.634L527.717 266.274L523.951 264.926L499.111 334.286L502.877 335.634ZM525.834 267.6H540.234V263.6H525.834V267.6ZM579.754 276.64V274.64H577.754V276.64H579.754ZM579.754 301.12H577.754V303.12H579.754V301.12ZM608.554 301.12H610.554V299.12H608.554V301.12ZM608.554 312.28V314.28H610.554V312.28H608.554ZM579.754 312.28V310.28H577.754V312.28H579.754ZM579.754 337.84H577.754V339.84H579.754V337.84ZM612.154 337.84H614.154V335.84H612.154V337.84ZM612.154 349V351H614.154V349H612.154ZM566.074 349H564.074V351H566.074V349ZM566.074 265.48V263.48H564.074V265.48H566.074ZM612.154 265.48H614.154V263.48H612.154V265.48ZM612.154 276.64V278.64H614.154V276.64H612.154ZM577.754 276.64V301.12H581.754V276.64H577.754ZM579.754 303.12H608.554V299.12H579.754V303.12ZM606.554 301.12V312.28H610.554V301.12H606.554ZM608.554 310.28H579.754V314.28H608.554V310.28ZM577.754 312.28V337.84H581.754V312.28H577.754ZM579.754 339.84H612.154V335.84H579.754V339.84ZM610.154 337.84V349H614.154V337.84H610.154ZM612.154 347H566.074V351H612.154V347ZM568.074 349V265.48H564.074V349H568.074ZM566.074 267.48H612.154V263.48H566.074V267.48ZM610.154 265.48V276.64H614.154V265.48H610.154ZM612.154 274.64H579.754V278.64H612.154V274.64ZM711.924 349V351H713.924V349H711.924ZM698.244 349L696.575 350.103L697.168 351H698.244V349ZM657.084 286.72L658.752 285.617L655.084 280.066V286.72H657.084ZM657.084 349V351H659.084V349H657.084ZM643.404 349H641.404V351H643.404V349ZM643.404 265.48V263.48H641.404V265.48H643.404ZM657.084 265.48L658.751 264.376L658.158 263.48H657.084V265.48ZM698.244 327.64L696.576 328.744L700.244 334.283V327.64H698.244ZM698.244 265.48V263.48H696.244V265.48H698.244ZM711.924 265.48H713.924V263.48H711.924V265.48ZM711.924 347H698.244V351H711.924V347ZM699.912 347.897L658.752 285.617L655.415 287.823L696.575 350.103L699.912 347.897ZM655.084 286.72V349H659.084V286.72H655.084ZM657.084 347H643.404V351H657.084V347ZM645.404 349V265.48H641.404V349H645.404ZM643.404 267.48H657.084V263.48H643.404V267.48ZM655.416 266.584L696.576 328.744L699.911 326.536L658.751 264.376L655.416 266.584ZM700.244 327.64V265.48H696.244V327.64H700.244ZM698.244 267.48H711.924V263.48H698.244V267.48ZM709.924 265.48V349H713.924V265.48H709.924ZM798.168 265.6H800.168V263.6H798.168V265.6ZM798.168 276.76V278.76H800.168V276.76H798.168ZM775.968 276.76V274.76H773.968V276.76H775.968ZM775.968 349V351H777.968V349H775.968ZM762.288 349H760.288V351H762.288V349ZM762.288 276.76H764.288V274.76H762.288V276.76ZM739.968 276.76H737.968V278.76H739.968V276.76ZM739.968 265.6V263.6H737.968V265.6H739.968ZM796.168 265.6V276.76H800.168V265.6H796.168ZM798.168 274.76H775.968V278.76H798.168V274.76ZM773.968 276.76V349H777.968V276.76H773.968ZM775.968 347H762.288V351H775.968V347ZM764.288 349V276.76H760.288V349H764.288ZM762.288 274.76H739.968V278.76H762.288V274.76ZM741.968 276.76V265.6H737.968V276.76H741.968ZM739.968 267.6H798.168V263.6H739.968V267.6ZM839.983 265.6H841.983V263.6H839.983V265.6ZM844.903 333.04L843.506 334.472L843.515 334.48L843.523 334.488L844.903 333.04ZM872.743 333.04L871.363 331.592L871.355 331.6L871.346 331.608L872.743 333.04ZM877.783 265.6V263.6H875.783V265.6H877.783ZM891.463 265.6H893.463V263.6H891.463V265.6ZM887.023 335.8L888.717 336.863V336.863L887.023 335.8ZM875.143 346.36L874.295 344.548L875.143 346.36ZM842.263 346.36L841.404 348.166L841.415 348.172L842.263 346.36ZM830.623 335.8L828.915 336.842L830.623 335.8ZM826.303 265.6V263.6H824.303V265.6H826.303ZM837.983 265.6V318.76H841.983V265.6H837.983ZM837.983 318.76C837.983 325.41 839.712 330.771 843.506 334.472L846.299 331.608C843.533 328.909 841.983 324.75 841.983 318.76H837.983ZM843.523 334.488C847.35 338.133 852.537 339.84 858.823 339.84V335.84C853.269 335.84 849.175 334.347 846.282 331.592L843.523 334.488ZM858.823 339.84C865.177 339.84 870.381 338.138 874.139 334.472L871.346 331.608C868.544 334.342 864.468 335.84 858.823 335.84V339.84ZM874.122 334.488C878.005 330.79 879.783 325.423 879.783 318.76H875.783C875.783 324.737 874.2 328.89 871.363 331.592L874.122 334.488ZM879.783 318.76V265.6H875.783V318.76H879.783ZM877.783 267.6H891.463V263.6H877.783V267.6ZM889.463 265.6V318.52H893.463V265.6H889.463ZM889.463 318.52C889.463 325.027 888.049 330.4 885.328 334.737L888.717 336.863C891.917 331.76 893.463 325.613 893.463 318.52H889.463ZM885.328 334.737C882.569 339.137 878.9 342.394 874.295 344.548L875.99 348.172C881.305 345.686 885.556 341.902 888.717 336.863L885.328 334.737ZM874.295 344.548C869.625 346.733 864.438 347.84 858.703 347.84V351.84C864.967 351.84 870.74 350.627 875.99 348.172L874.295 344.548ZM858.703 347.84C852.967 347.84 847.78 346.733 843.11 344.548L841.415 348.172C846.665 350.627 852.438 351.84 858.703 351.84V347.84ZM843.121 344.554C838.601 342.405 835.012 339.155 832.33 334.758L828.915 336.842C831.993 341.885 836.164 345.675 841.404 348.166L843.121 344.554ZM832.33 334.758C829.681 330.417 828.303 325.037 828.303 318.52H824.303C824.303 325.603 825.804 331.743 828.915 336.842L832.33 334.758ZM828.303 318.52V265.6H824.303V318.52H828.303ZM826.303 267.6H839.983V263.6H826.303V267.6ZM966.994 349L965.261 349.998L965.838 351H966.994V349ZM947.794 315.64L949.528 314.642L948.951 313.64H947.794V315.64ZM937.354 315.64V313.64H935.354V315.64H937.354ZM937.354 349V351H939.354V349H937.354ZM923.674 349H921.674V351H923.674V349ZM923.674 265.6V263.6H921.674V265.6H923.674ZM968.674 268.96L967.767 270.742L967.773 270.746L967.78 270.749L968.674 268.96ZM978.634 277.96L976.9 278.956L976.908 278.97L976.916 278.984L978.634 277.96ZM977.194 305.44L975.567 304.278L975.563 304.283L977.194 305.44ZM962.674 314.44L962.2 312.497L959.568 313.139L960.957 315.465L962.674 314.44ZM983.314 349V351H986.838L985.031 347.975L983.314 349ZM937.354 304.72H935.354V306.72H937.354V304.72ZM963.994 300.88L962.602 299.444L962.591 299.455L962.58 299.466L963.994 300.88ZM964.114 280.48L962.723 281.916L962.734 281.928L962.746 281.939L964.114 280.48ZM937.354 276.76V274.76H935.354V276.76H937.354ZM968.728 348.002L949.528 314.642L946.061 316.638L965.261 349.998L968.728 348.002ZM947.794 313.64H937.354V317.64H947.794V313.64ZM935.354 315.64V349H939.354V315.64H935.354ZM937.354 347H923.674V351H937.354V347ZM925.674 349V265.6H921.674V349H925.674ZM923.674 267.6H952.474V263.6H923.674V267.6ZM952.474 267.6C958.649 267.6 963.719 268.681 967.767 270.742L969.582 267.178C964.83 264.759 959.099 263.6 952.474 263.6V267.6ZM967.78 270.749C971.964 272.841 974.965 275.588 976.9 278.956L980.368 276.964C977.983 272.812 974.344 269.559 969.569 267.171L967.78 270.749ZM976.916 278.984C978.96 282.415 979.994 286.258 979.994 290.56H983.994C983.994 285.582 982.788 281.025 980.352 276.936L976.916 278.984ZM979.994 290.56C979.994 295.578 978.528 300.132 975.567 304.278L978.822 306.602C982.261 301.788 983.994 296.422 983.994 290.56H979.994ZM975.563 304.283C972.786 308.199 968.414 310.981 962.2 312.497L963.148 316.383C970.054 314.699 975.362 311.481 978.826 306.597L975.563 304.283ZM960.957 315.465L981.597 350.025L985.031 347.975L964.391 313.415L960.957 315.465ZM983.314 347H966.994V351H983.314V347ZM937.354 306.72H952.474V302.72H937.354V306.72ZM952.474 306.72C957.902 306.72 962.341 305.362 965.408 302.294L962.58 299.466C960.527 301.518 957.286 302.72 952.474 302.72V306.72ZM965.386 302.316C968.483 299.313 969.954 295.319 969.954 290.56H965.954C965.954 294.441 964.786 297.327 962.602 299.444L965.386 302.316ZM969.954 290.56C969.954 285.824 968.536 281.884 965.482 279.021L962.746 281.939C964.813 283.876 965.954 286.656 965.954 290.56H969.954ZM965.506 279.044C962.431 276.065 957.957 274.76 952.474 274.76V278.76C957.392 278.76 960.677 279.935 962.723 281.916L965.506 279.044ZM952.474 274.76H937.354V278.76H952.474V274.76ZM935.354 276.76V304.72H939.354V276.76H935.354ZM1027.57 276.64V274.64H1025.57V276.64H1027.57ZM1027.57 301.12H1025.57V303.12H1027.57V301.12ZM1056.37 301.12H1058.37V299.12H1056.37V301.12ZM1056.37 312.28V314.28H1058.37V312.28H1056.37ZM1027.57 312.28V310.28H1025.57V312.28H1027.57ZM1027.57 337.84H1025.57V339.84H1027.57V337.84ZM1059.97 337.84H1061.97V335.84H1059.97V337.84ZM1059.97 349V351H1061.97V349H1059.97ZM1013.89 349H1011.89V351H1013.89V349ZM1013.89 265.48V263.48H1011.89V265.48H1013.89ZM1059.97 265.48H1061.97V263.48H1059.97V265.48ZM1059.97 276.64V278.64H1061.97V276.64H1059.97ZM1025.57 276.64V301.12H1029.57V276.64H1025.57ZM1027.57 303.12H1056.37V299.12H1027.57V303.12ZM1054.37 301.12V312.28H1058.37V301.12H1054.37ZM1056.37 310.28H1027.57V314.28H1056.37V310.28ZM1025.57 312.28V337.84H1029.57V312.28H1025.57ZM1027.57 339.84H1059.97V335.84H1027.57V339.84ZM1057.97 337.84V349H1061.97V337.84H1057.97ZM1059.97 347H1013.89V351H1059.97V347ZM1015.89 349V265.48H1011.89V349H1015.89ZM1013.89 267.48H1059.97V263.48H1013.89V267.48ZM1057.97 265.48V276.64H1061.97V265.48H1057.97ZM1059.97 274.64H1027.57V278.64H1059.97V274.64ZM1103.58 346.96L1102.77 348.786L1102.78 348.792L1102.8 348.798L1103.58 346.96ZM1093.02 338.56L1094.65 337.401V337.401L1093.02 338.56ZM1089.18 325.96V323.96H1087.18V325.96H1089.18ZM1103.82 325.96L1105.82 325.783L1105.65 323.96H1103.82V325.96ZM1108.02 334.84L1106.66 336.301L1106.67 336.311L1106.68 336.322L1108.02 334.84ZM1129.74 334.96L1131.04 336.485L1131.05 336.474L1131.06 336.462L1129.74 334.96ZM1131.18 319.24L1129.7 320.585L1129.72 320.603L1129.74 320.621L1131.18 319.24ZM1125.06 315.16L1124.32 317.017L1124.33 317.021L1124.34 317.025L1125.06 315.16ZM1114.98 312.04L1114.47 313.973L1114.48 313.976L1114.98 312.04ZM1101.66 307.72L1100.84 309.542L1100.87 309.554L1100.89 309.565L1101.66 307.72ZM1093.02 275.68L1094.69 276.789V276.789L1093.02 275.68ZM1103.1 267.4L1103.92 269.228V269.228L1103.1 267.4ZM1137.9 270.64L1136.66 272.204L1136.67 272.215L1136.68 272.225L1137.9 270.64ZM1146.54 287.2V289.2H1148.71L1148.54 287.041L1146.54 287.2ZM1131.42 287.2L1129.43 287.357L1129.58 289.2H1131.42V287.2ZM1107.06 279.16L1108.32 280.717V280.717L1107.06 279.16ZM1105.62 294.16L1104.14 295.502L1104.17 295.539L1104.21 295.574L1105.62 294.16ZM1121.46 301.12L1122 299.192L1121.98 299.189L1121.46 301.12ZM1134.9 305.68L1134.1 307.509L1134.1 307.513L1134.11 307.516L1134.9 305.68ZM1143.78 312.76L1142.18 313.96L1142.2 313.982L1142.22 314.004L1143.78 312.76ZM1144.02 337.36L1142.32 336.31L1142.31 336.323L1142.31 336.336L1144.02 337.36ZM1134.06 346.48L1134.98 348.256L1135 348.249L1134.06 346.48ZM1118.7 347.84C1113.34 347.84 1108.57 346.92 1104.37 345.122L1102.8 348.798C1107.56 350.84 1112.87 351.84 1118.7 351.84V347.84ZM1104.4 345.134C1100.21 343.263 1096.98 340.678 1094.65 337.401L1091.39 339.719C1094.18 343.642 1098 346.657 1102.77 348.786L1104.4 345.134ZM1094.65 337.401C1092.36 334.169 1091.18 330.382 1091.18 325.96H1087.18C1087.18 331.138 1088.57 335.751 1091.39 339.719L1094.65 337.401ZM1089.18 327.96H1103.82V323.96H1089.18V327.96ZM1101.83 326.137C1102.19 330.193 1103.79 333.621 1106.66 336.301L1109.39 333.379C1107.29 331.419 1106.1 328.927 1105.82 325.783L1101.83 326.137ZM1106.68 336.322C1109.71 339.07 1113.81 340.32 1118.7 340.32V336.32C1114.48 336.32 1111.45 335.25 1109.37 333.358L1106.68 336.322ZM1118.7 340.32C1123.73 340.32 1127.92 339.127 1131.04 336.485L1128.45 333.435C1126.28 335.273 1123.12 336.32 1118.7 336.32V340.32ZM1131.06 336.462C1134.15 333.752 1135.7 330.239 1135.7 326.08H1131.7C1131.7 329.121 1130.62 331.528 1128.42 333.458L1131.06 336.462ZM1135.7 326.08C1135.7 322.849 1134.72 320.047 1132.63 317.859L1129.74 320.621C1131.01 321.953 1131.7 323.711 1131.7 326.08H1135.7ZM1132.66 317.895C1130.83 315.879 1128.52 314.354 1125.79 313.295L1124.34 317.025C1126.57 317.886 1128.34 319.081 1129.7 320.585L1132.66 317.895ZM1125.81 313.303C1123.29 312.297 1119.84 311.232 1115.49 310.104L1114.48 313.976C1118.77 315.088 1122.04 316.103 1124.32 317.017L1125.81 313.303ZM1115.5 310.107C1110.1 308.68 1105.76 307.267 1102.44 305.875L1100.89 309.565C1104.45 311.053 1108.98 312.52 1114.47 313.973L1115.5 310.107ZM1102.49 305.898C1099.45 304.522 1096.82 302.418 1094.61 299.541L1091.44 301.979C1094.03 305.342 1097.16 307.878 1100.84 309.542L1102.49 305.898ZM1094.61 299.541C1092.55 296.868 1091.42 293.18 1091.42 288.28H1087.42C1087.42 293.78 1088.69 298.412 1091.44 301.979L1094.61 299.541ZM1091.42 288.28C1091.42 283.83 1092.53 280.025 1094.69 276.789L1091.36 274.571C1088.72 278.535 1087.42 283.13 1087.42 288.28H1091.42ZM1094.69 276.789C1096.86 273.534 1099.91 271.009 1103.92 269.228L1102.29 265.572C1097.66 267.631 1093.99 270.626 1091.36 274.571L1094.69 276.789ZM1103.92 269.228C1107.93 267.442 1112.65 266.52 1118.1 266.52V262.52C1112.2 262.52 1106.91 263.518 1102.29 265.572L1103.92 269.228ZM1118.1 266.52C1125.84 266.52 1131.97 268.467 1136.66 272.204L1139.15 269.076C1133.6 264.653 1126.53 262.52 1118.1 262.52V266.52ZM1136.68 272.225C1141.4 275.852 1144.03 280.834 1144.55 287.359L1148.54 287.041C1147.94 279.486 1144.81 273.428 1139.12 269.055L1136.68 272.225ZM1146.54 285.2H1131.42V289.2H1146.54V285.2ZM1133.42 287.043C1133.13 283.392 1131.38 280.312 1128.37 277.852L1125.84 280.948C1128.11 282.808 1129.24 284.928 1129.43 287.357L1133.42 287.043ZM1128.37 277.852C1125.29 275.329 1121.32 274.16 1116.66 274.16V278.16C1120.65 278.16 1123.64 279.151 1125.84 280.948L1128.37 277.852ZM1116.66 274.16C1112.4 274.16 1108.72 275.255 1105.81 277.603L1108.32 280.717C1110.37 279.065 1113.09 278.16 1116.66 278.16V274.16ZM1105.81 277.603C1102.77 280.053 1101.34 283.557 1101.34 287.8H1105.34C1105.34 284.523 1106.4 282.267 1108.32 280.717L1105.81 277.603ZM1101.34 287.8C1101.34 290.787 1102.24 293.406 1104.14 295.502L1107.11 292.818C1105.96 291.554 1105.34 289.933 1105.34 287.8H1101.34ZM1104.21 295.574C1106.03 297.391 1108.27 298.811 1110.88 299.857L1112.37 296.143C1110.18 295.269 1108.42 294.129 1107.04 292.746L1104.21 295.574ZM1110.88 299.857C1113.39 300.859 1116.75 301.922 1120.94 303.051L1121.98 299.189C1117.86 298.078 1114.66 297.061 1112.37 296.143L1110.88 299.857ZM1120.93 303.048C1126.4 304.554 1130.78 306.044 1134.1 307.509L1135.71 303.851C1132.15 302.276 1127.57 300.726 1122 299.192L1120.93 303.048ZM1134.11 307.516C1137.3 308.892 1139.98 311.026 1142.18 313.96L1145.38 311.56C1142.78 308.094 1139.55 305.508 1135.7 303.844L1134.11 307.516ZM1142.22 314.004C1144.34 316.67 1145.5 320.385 1145.5 325.36H1149.5C1149.5 319.775 1148.19 315.09 1145.35 311.516L1142.22 314.004ZM1145.5 325.36C1145.5 329.213 1144.46 332.852 1142.32 336.31L1145.73 338.41C1148.23 334.348 1149.5 329.987 1149.5 325.36H1145.5ZM1142.31 336.336C1140.28 339.739 1137.25 342.538 1133.13 344.711L1135 348.249C1139.68 345.782 1143.29 342.501 1145.74 338.384L1142.31 336.336ZM1133.14 344.704C1129.16 346.768 1124.37 347.84 1118.7 347.84V351.84C1124.88 351.84 1130.33 350.672 1134.98 348.256L1133.14 344.704Z" fill="white" mask="url(#path-11-outside-2_11_24)"/>
</g>
<defs>
<filter id="filter0_d_11_24" x="132" y="98.9998" width="101" height="100" filterUnits="userSpaceOnUse" color-interpolation-filters="sRGB">
<feFlood flood-opacity="0" result="BackgroundImageFix"/>
<feColorMatrix in="SourceAlpha" type="matrix" values="0 0 0 0 0 0 0 0 0 0 0 0 0 0 0 0 0 0 127 0" result="hardAlpha"/>
<feOffset dy="4"/>
<feGaussianBlur stdDeviation="2"/>
<feComposite in2="hardAlpha" operator="out"/>
<feColorMatrix type="matrix" values="0 0 0 0 0 0 0 0 0 0 0 0 0 0 0 0 0 0 0.25 0"/>
<feBlend mode="normal" in2="BackgroundImageFix" result="effect1_dropShadow_11_24"/>
<feBlend mode="normal" in="SourceGraphic" in2="effect1_dropShadow_11_24" result="shape"/>
</filter>
<filter id="filter1_d_11_24" x="189" y="152.991" width="23" height="31.0088" filterUnits="userSpaceOnUse" color-interpolation-filters="sRGB">
<feFlood flood-opacity="0" result="BackgroundImageFix"/>
<feColorMatrix in="SourceAlpha" type="matrix" values="0 0 0 0 0 0 0 0 0 0 0 0 0 0 0 0 0 0 127 0" result="hardAlpha"/>
<feOffset dy="4"/>
<feGaussianBlur stdDeviation="2"/>
<feComposite in2="hardAlpha" operator="out"/>
<feColorMatrix type="matrix" values="0 0 0 0 0 0 0 0 0 0 0 0 0 0 0 0 0 0 0.25 0"/>
<feBlend mode="normal" in2="BackgroundImageFix" result="effect1_dropShadow_11_24"/>
<feBlend mode="normal" in="SourceGraphic" in2="effect1_dropShadow_11_24" result="shape"/>
</filter>
<filter id="filter2_d_11_24" x="152.999" y="153" width="22.001" height="31.0005" filterUnits="userSpaceOnUse" color-interpolation-filters="sRGB">
<feFlood flood-opacity="0" result="BackgroundImageFix"/>
<feColorMatrix in="SourceAlpha" type="matrix" values="0 0 0 0 0 0 0 0 0 0 0 0 0 0 0 0 0 0 127 0" result="hardAlpha"/>
<feOffset dy="4"/>
<feGaussianBlur stdDeviation="2"/>
<feComposite in2="hardAlpha" operator="out"/>
<feColorMatrix type="matrix" values="0 0 0 0 0 0 0 0 0 0 0 0 0 0 0 0 0 0 0.25 0"/>
<feBlend mode="normal" in2="BackgroundImageFix" result="effect1_dropShadow_11_24"/>
<feBlend mode="normal" in="SourceGraphic" in2="effect1_dropShadow_11_24" result="shape"/>
</filter>
<clipPath id="clip0_11_24">
<rect width="1276" height="410" fill="white"/>
</clipPath>
</defs>
</svg>
